Roundel Latin-Bold.ufo
<glyph name="numbersign" format="1">
  <advance width="693"/>
  <unicode hex="0023"/>
  <outline>
    <contour>
      <point x="211" y="641" type="line"/>
      <point x="81" y="0" type="line"/>
      <point x="214" y="0" type="line"/>
      <point x="344" y="641" type="line"/>
    </contour>
    <contour>
      <point x="44" y="271" type="line"/>
      <point x="44" y="271"/>
      <point x="20" y="156"/>
      <point x="20" y="156" type="curve"/>
      <point x="605" y="156" type="line"/>
      <point x="628" y="271" type="line"/>
    </contour>
    <contour>
      <point x="66" y="378" type="curve"/>
      <point x="650" y="378" type="line"/>
      <point x="673" y="493" type="line"/>
      <point x="89" y="493" type="line"/>
      <point x="89" y="493"/>
      <point x="66" y="378"/>
    </contour>
    <contour>
      <point x="328" y="0" type="line"/>
      <point x="461" y="0" type="line"/>
      <point x="591" y="641" type="line"/>
      <point x="458" y="641" type="line"/>
    </contour>
  </outline>
</glyph>
<glyph name="dollar" format="1">
  <advance width="633"/>
  <unicode hex="0024"/>
  <outline>
    <contour>
      <point x="433" y="188" type="curve"/>
      <point x="433" y="221"/>
      <point x="393" y="232"/>
      <point x="334" y="246" type="curve" smooth="yes"/>
      <point x="245" y="267" type="line" smooth="yes"/>
      <point x="129" y="294"/>
      <point x="25" y="338"/>
      <point x="25" y="478" type="curve"/>
      <point x="25" y="619"/>
      <point x="148" y="697"/>
      <point x="296" y="697" type="curve" smooth="yes"/>
      <point x="427" y="697"/>
      <point x="510" y="660"/>
      <point x="555" y="634" type="curve"/>
      <point x="555" y="453" type="line"/>
      <point x="488" y="495"/>
      <point x="378" y="534"/>
      <point x="290" y="534" type="curve"/>
      <point x="238" y="534"/>
      <point x="207" y="521"/>
      <point x="207" y="491" type="curve"/>
      <point x="207" y="455"/>
      <point x="248" y="444"/>
      <point x="316" y="427" type="curve" smooth="yes"/>
      <point x="394" y="407" type="line" smooth="yes"/>
      <point x="498" y="380"/>
      <point x="608" y="341"/>
      <point x="608" y="197" type="curve" smooth="yes"/>
      <point x="608" y="61"/>
      <point x="489" y="-13"/>
      <point x="330" y="-13" type="curve" smooth="yes"/>
      <point x="205" y="-13"/>
      <point x="104" y="27"/>
      <point x="58" y="60" type="curve"/>
      <point x="58" y="235" type="line"/>
      <point x="126" y="185"/>
      <point x="250" y="144"/>
      <point x="341" y="144" type="curve"/>
      <point x="413" y="144"/>
      <point x="433" y="160"/>
    </contour>
    <contour>
      <point x="239.0" y="606.0" type="line"/>
      <point x="239.0" y="784.0" type="line"/>
      <point x="394.0" y="784.0" type="line"/>
      <point x="394.0" y="606.0" type="line"/>
    </contour>
    <contour>
      <point x="394" y="-100" type="line"/>
      <point x="239" y="-100" type="line"/>
      <point x="239" y="80" type="line"/>
      <point x="394" y="80" type="line"/>
    </contour>
  </outline>
</glyph>
<glyph name="percent" format="1">
  <advance width="837"/>
  <unicode hex="0025"/>
  <outline>
    <contour>
      <point x="187" y="698" type="curve"/>
      <point x="293" y="698"/>
      <point x="366" y="620"/>
      <point x="366" y="511" type="curve" smooth="yes"/>
      <point x="366" y="403"/>
      <point x="293" y="324"/>
      <point x="189" y="324" type="curve"/>
      <point x="85" y="324"/>
      <point x="10" y="403"/>
      <point x="10" y="511" type="curve" smooth="yes"/>
      <point x="10" y="620"/>
      <point x="85" y="698"/>
    </contour>
    <contour>
      <point x="135" y="0" type="line"/>
      <point x="280" y="0" type="line"/>
      <point x="700" y="688" type="line"/>
      <point x="557" y="688" type="line"/>
    </contour>
    <contour>
      <point x="188" y="589" type="curve"/>
      <point x="150" y="589"/>
      <point x="127" y="558"/>
      <point x="127" y="511" type="curve" smooth="yes"/>
      <point x="127" y="467"/>
      <point x="150" y="433"/>
      <point x="188" y="433" type="curve"/>
      <point x="228" y="433"/>
      <point x="249" y="467"/>
      <point x="249" y="511" type="curve" smooth="yes"/>
      <point x="249" y="555"/>
      <point x="228" y="589"/>
    </contour>
    <contour>
      <point x="648" y="364" type="curve"/>
      <point x="754" y="364"/>
      <point x="827" y="286"/>
      <point x="827" y="177" type="curve" smooth="yes"/>
      <point x="827" y="69"/>
      <point x="754" y="-10"/>
      <point x="650" y="-10" type="curve"/>
      <point x="546" y="-10"/>
      <point x="471" y="69"/>
      <point x="471" y="177" type="curve" smooth="yes"/>
      <point x="471" y="286"/>
      <point x="546" y="364"/>
    </contour>
    <contour>
      <point x="588" y="177" type="curve" smooth="yes"/>
      <point x="588" y="133"/>
      <point x="611" y="99"/>
      <point x="649" y="99" type="curve"/>
      <point x="689" y="99"/>
      <point x="710" y="133"/>
      <point x="710" y="177" type="curve" smooth="yes"/>
      <point x="710" y="221"/>
      <point x="689" y="255"/>
      <point x="649" y="255" type="curve"/>
      <point x="611" y="255"/>
      <point x="588" y="224"/>
    </contour>
  </outline>
</glyph>
<glyph name="parenleft" format="1">
  <advance width="354"/>
  <unicode hex="0028"/>
  <outline>
    <contour>
      <point x="344" y="719" type="line"/>
      <point x="294" y="650"/>
      <point x="180" y="505"/>
      <point x="180" y="294" type="curve"/>
      <point x="180" y="83"/>
      <point x="294" y="-61"/>
      <point x="344" y="-130" type="curve"/>
      <point x="224" y="-130" type="line"/>
      <point x="149" y="-67"/>
      <point x="30" y="82"/>
      <point x="30" y="294" type="curve"/>
      <point x="30" y="506"/>
      <point x="149" y="656"/>
      <point x="224" y="719" type="curve"/>
    </contour>
  </outline>
</glyph>
<glyph name="asterisk" format="1">
  <advance width="433"/>
  <unicode hex="002A"/>
  <outline>
    <contour>
      <point x="275" y="362" type="line"/>
      <point x="365" y="428" type="line"/>
      <point x="278" y="520" type="line"/>
      <point x="403" y="541" type="line"/>
      <point x="369" y="647" type="line"/>
      <point x="255" y="592" type="line"/>
      <point x="273" y="718" type="line"/>
      <point x="161" y="718" type="line"/>
      <point x="179" y="593" type="line"/>
      <point x="65" y="649" type="line"/>
      <point x="30" y="543" type="line"/>
      <point x="155" y="520" type="line"/>
      <point x="66" y="429" type="line"/>
      <point x="156" y="364" type="line"/>
      <point x="216" y="475" type="line"/>
    </contour>
  </outline>
</glyph>
<glyph name="plus" format="1">
  <advance width="521"/>
  <unicode hex="002B"/>
  <outline>
    <contour>
      <point x="336" y="575" type="line"/>
      <point x="185" y="575" type="line"/>
      <point x="185" y="114" type="line"/>
      <point x="336" y="114" type="line"/>
    </contour>
    <contour>
      <point x="30" y="272" type="line"/>
      <point x="491" y="272" type="line"/>
      <point x="491" y="417" type="line"/>
      <point x="30" y="417" type="line"/>
    </contour>
  </outline>
</glyph>
<glyph name="comma" format="1">
  <advance width="241"/>
  <unicode hex="002C"/>
  <outline>
    <contour>
      <point x="221" y="175" type="line"/>
      <point x="56" y="175" type="line"/>
      <point x="-4" y="-112" type="line"/>
      <point x="131" y="-112" type="line"/>
    </contour>
  </outline>
</glyph>
<glyph name="period" format="1">
  <advance width="269"/>
  <unicode hex="002E"/>
  <outline>
    <contour>
      <point x="35" y="29"/>
      <point x="79" y="-15"/>
      <point x="134" y="-15" type="curve" smooth="yes"/>
      <point x="189" y="-15"/>
      <point x="234" y="29"/>
      <point x="234" y="84" type="curve" smooth="yes"/>
      <point x="234" y="139"/>
      <point x="189" y="184"/>
      <point x="134" y="184" type="curve" smooth="yes"/>
      <point x="79" y="184"/>
      <point x="35" y="139"/>
      <point x="35" y="84" type="curve" smooth="yes"/>
    </contour>
  </outline>
</glyph>
<glyph name="slash" format="1">
  <advance width="492"/>
  <unicode hex="002F"/>
  <outline>
    <contour>
      <point x="152" y="0" type="line"/>
      <point x="482" y="688" type="line"/>
      <point x="342" y="688" type="line"/>
      <point x="10" y="0" type="line"/>
    </contour>
  </outline>
</glyph>
<glyph name="zero" format="1">
  <advance width="712"/>
  <unicode hex="0030"/>
  <outline>
    <contour>
      <point x="356" y="-10" type="curve" smooth="yes"/>
      <point x="193.316455696" y="-10.0"/>
      <point x="60" y="99"/>
      <point x="60" y="344" type="curve" smooth="yes"/>
      <point x="60" y="588"/>
      <point x="193.316455696" y="698.0"/>
      <point x="356" y="698" type="curve" smooth="yes"/>
      <point x="518.683544304" y="698.0"/>
      <point x="652" y="588"/>
      <point x="652" y="344" type="curve" smooth="yes"/>
      <point x="652" y="99"/>
      <point x="518.683544304" y="-10.0"/>
    </contour>
    <contour>
      <point x="356" y="150" type="curve" smooth="yes"/>
      <point x="436.055555556" y="150.0"/>
      <point x="477" y="216"/>
      <point x="477" y="344" type="curve"/>
      <point x="477" y="472"/>
      <point x="436.055555556" y="538.0"/>
      <point x="356" y="538" type="curve" smooth="yes"/>
      <point x="275.944444444" y="538.0"/>
      <point x="235" y="472"/>
      <point x="235" y="344" type="curve" smooth="yes"/>
      <point x="235" y="216"/>
      <point x="275.944444444" y="150.0"/>
    </contour>
  </outline>
</glyph>
<glyph name="one" format="1">
  <advance width="372"/>
  <unicode hex="0031"/>
  <outline>
    <contour>
      <point x="60" y="688" type="line"/>
      <point x="10" y="540" type="line"/>
      <point x="142" y="540" type="line"/>
      <point x="142" y="0" type="line"/>
      <point x="307" y="0" type="line"/>
      <point x="307" y="688" type="line"/>
    </contour>
  </outline>
</glyph>
<glyph name="two" format="1">
  <advance width="594"/>
  <unicode hex="0032"/>
  <outline>
    <contour>
      <point x="554" y="0" type="line"/>
      <point x="554" y="150" type="line"/>
      <point x="245" y="150" type="line"/>
      <point x="406" y="293" type="line" smooth="yes"/>
      <point x="475" y="354"/>
      <point x="542" y="410"/>
      <point x="542" y="508" type="curve"/>
      <point x="542" y="618"/>
      <point x="455" y="698"/>
      <point x="315" y="698" type="curve"/>
      <point x="203" y="698"/>
      <point x="105" y="649"/>
      <point x="59" y="615" type="curve"/>
      <point x="59" y="444" type="line"/>
      <point x="120" y="494"/>
      <point x="215" y="545"/>
      <point x="299" y="545" type="curve"/>
      <point x="343" y="545"/>
      <point x="370" y="530"/>
      <point x="370" y="498" type="curve"/>
      <point x="370" y="468"/>
      <point x="346" y="438"/>
      <point x="292" y="384" type="curve" smooth="yes"/>
      <point x="30" y="126" type="line"/>
      <point x="30" y="0" type="line"/>
    </contour>
  </outline>
</glyph>
<glyph name="five" format="1">
  <advance width="617"/>
  <unicode hex="0035"/>
  <outline>
    <contour>
      <point x="100" y="688" type="line"/>
      <point x="60" y="285" type="line"/>
      <point x="296" y="285" type="line"/>
      <point x="373" y="285"/>
      <point x="422" y="271"/>
      <point x="422" y="213" type="curve"/>
      <point x="422" y="167"/>
      <point x="380" y="140"/>
      <point x="305" y="140" type="curve"/>
      <point x="202" y="140"/>
      <point x="96" y="187"/>
      <point x="50" y="226" type="curve"/>
      <point x="50" y="60" type="line"/>
      <point x="103" y="25"/>
      <point x="198" y="-10"/>
      <point x="318" y="-10" type="curve"/>
      <point x="489" y="-10"/>
      <point x="592" y="82"/>
      <point x="592" y="213" type="curve" smooth="yes"/>
      <point x="592" y="358"/>
      <point x="502" y="434"/>
      <point x="347" y="434" type="curve"/>
      <point x="234" y="434" type="line"/>
      <point x="246" y="538" type="line"/>
      <point x="558" y="538" type="line"/>
      <point x="558" y="688" type="line"/>
    </contour>
  </outline>
</glyph>
<glyph name="six" format="1">
  <advance width="620"/>
  <unicode hex="0036"/>
  <outline>
    <contour>
      <point x="223" y="416" type="line"/>
      <point x="296.821571171" y="525.215475158"/>
      <point x="432.023329582" y="631.657816383"/>
      <point x="515" y="688" type="curve"/>
      <point x="282" y="688" type="line"/>
      <point x="176.743052503" y="619.48368512"/>
      <point x="30.0" y="470.296912114"/>
      <point x="30" y="277" type="curve"/>
      <point x="30.0" y="107.079422383"/>
      <point x="131.0" y="-10.0"/>
      <point x="314" y="-10" type="curve" smooth="yes"/>
      <point x="489.0" y="-10.0"/>
      <point x="600.0" y="95.2631578947"/>
      <point x="600" y="240" type="curve" smooth="yes"/>
      <point x="600.0" y="372.252173913"/>
      <point x="513.0" y="467.0"/>
      <point x="372" y="467" type="curve"/>
      <point x="263" y="467"/>
      <point x="196" y="408"/>
      <point x="171" y="371" type="curve"/>
      <point x="163" y="270" type="line"/>
      <point x="195.959059172" y="301.929088573"/>
      <point x="264.503184713" y="330.0"/>
      <point x="329" y="330" type="curve"/>
      <point x="394.243243243" y="330.0"/>
      <point x="431.0" y="299.0"/>
      <point x="431" y="237" type="curve" smooth="yes"/>
      <point x="431.0" y="175.909090909"/>
      <point x="385.0" y="141.0"/>
      <point x="321" y="141" type="curve"/>
      <point x="249.0" y="141.0"/>
      <point x="200" y="188"/>
      <point x="200" y="271" type="curve"/>
      <point x="200" y="308"/>
      <point x="210" y="337"/>
      <point x="229" y="376" type="curve"/>
    </contour>
  </outline>
</glyph>
<glyph name="seven" format="1">
  <advance width="564"/>
  <unicode hex="0037"/>
  <outline>
    <contour>
      <point x="265" y="0" type="line"/>
      <point x="544" y="552" type="line"/>
      <point x="544" y="688" type="line"/>
      <point x="20" y="688" type="line"/>
      <point x="20" y="538" type="line"/>
      <point x="365" y="538" type="line"/>
      <point x="76" y="0" type="line"/>
    </contour>
  </outline>
</glyph>
<glyph name="eight" format="1">
  <advance width="663"/>
  <unicode hex="0038"/>
  <outline>
    <contour>
      <point x="330" y="-9" type="curve" smooth="yes"/>
      <point x="514" y="-9"/>
      <point x="623" y="83"/>
      <point x="623" y="204" type="curve"/>
      <point x="623" y="276"/>
      <point x="585" y="335"/>
      <point x="511" y="374" type="curve"/>
      <point x="564" y="407"/>
      <point x="587" y="458"/>
      <point x="587" y="504" type="curve"/>
      <point x="587" y="612"/>
      <point x="491" y="699"/>
      <point x="330" y="699" type="curve" smooth="yes"/>
      <point x="172" y="699"/>
      <point x="75" y="613"/>
      <point x="75" y="506" type="curve"/>
      <point x="75" y="459"/>
      <point x="97" y="407"/>
      <point x="153" y="374" type="curve"/>
      <point x="76" y="333"/>
      <point x="40" y="274"/>
      <point x="40" y="201" type="curve"/>
      <point x="40" y="82"/>
      <point x="150" y="-9"/>
    </contour>
    <contour>
      <point x="236" y="495" type="curve" smooth="yes"/>
      <point x="236" y="542"/>
      <point x="281" y="560"/>
      <point x="330" y="560" type="curve" smooth="yes"/>
      <point x="381" y="560"/>
      <point x="426" y="539"/>
      <point x="426" y="492" type="curve" smooth="yes"/>
      <point x="426" y="442"/>
      <point x="380" y="422"/>
      <point x="331" y="422" type="curve" smooth="yes"/>
      <point x="281" y="422"/>
      <point x="236" y="445"/>
    </contour>
    <contour>
      <point x="206" y="218" type="curve" smooth="yes"/>
      <point x="206" y="288"/>
      <point x="272" y="314"/>
      <point x="331" y="314" type="curve" smooth="yes"/>
      <point x="389" y="314"/>
      <point x="457" y="292"/>
      <point x="457" y="221" type="curve" smooth="yes"/>
      <point x="457" y="152"/>
      <point x="388" y="130"/>
      <point x="330" y="130" type="curve" smooth="yes"/>
      <point x="274" y="130"/>
      <point x="206" y="151"/>
    </contour>
  </outline>
</glyph>
<glyph name="nine" format="1">
  <advance width="630"/>
  <unicode hex="0039"/>
  <outline>
    <contour>
      <point x="407" y="272" type="line"/>
      <point x="333" y="163"/>
      <point x="198" y="56"/>
      <point x="115" y="0" type="curve"/>
      <point x="348" y="0" type="line"/>
      <point x="453" y="69"/>
      <point x="600" y="218"/>
      <point x="600" y="411" type="curve"/>
      <point x="600" y="581"/>
      <point x="499" y="698"/>
      <point x="316" y="698" type="curve" smooth="yes"/>
      <point x="141" y="698"/>
      <point x="30" y="593"/>
      <point x="30" y="448" type="curve" smooth="yes"/>
      <point x="30" y="316"/>
      <point x="117" y="221"/>
      <point x="258" y="221" type="curve"/>
      <point x="367" y="221"/>
      <point x="434" y="280"/>
      <point x="459" y="317" type="curve"/>
      <point x="467" y="418" type="line"/>
      <point x="434" y="386"/>
      <point x="365" y="358"/>
      <point x="301" y="358" type="curve"/>
      <point x="236" y="358"/>
      <point x="199" y="389"/>
      <point x="199" y="451" type="curve" smooth="yes"/>
      <point x="199" y="512"/>
      <point x="245" y="547"/>
      <point x="309" y="547" type="curve"/>
      <point x="381" y="547"/>
      <point x="430" y="500"/>
      <point x="430" y="417" type="curve"/>
      <point x="430" y="380"/>
      <point x="420" y="351"/>
      <point x="401" y="312" type="curve"/>
    </contour>
  </outline>
</glyph>
<glyph name="colon" format="1">
  <advance width="269"/>
  <unicode hex="003A"/>
  <outline>
    <contour>
      <point x="134" y="-15" type="curve" smooth="yes"/>
      <point x="189" y="-15"/>
      <point x="234" y="29"/>
      <point x="234" y="84" type="curve" smooth="yes"/>
      <point x="234" y="139"/>
      <point x="189" y="184"/>
      <point x="134" y="184" type="curve" smooth="yes"/>
      <point x="79" y="184"/>
      <point x="35" y="139"/>
      <point x="35" y="84" type="curve" smooth="yes"/>
      <point x="35" y="29"/>
      <point x="79" y="-15"/>
    </contour>
    <contour>
      <point x="134" y="295" type="curve" smooth="yes"/>
      <point x="189" y="295"/>
      <point x="234" y="339"/>
      <point x="234" y="394" type="curve" smooth="yes"/>
      <point x="234" y="449"/>
      <point x="189" y="494"/>
      <point x="134" y="494" type="curve" smooth="yes"/>
      <point x="79" y="494"/>
      <point x="35" y="449"/>
      <point x="35" y="394" type="curve" smooth="yes"/>
      <point x="35" y="339"/>
      <point x="79" y="295"/>
    </contour>
  </outline>
</glyph>
<glyph name="equal" format="1">
  <advance width="521"/>
  <unicode hex="003D"/>
  <outline>
    <contour>
      <point x="30" y="382" type="line"/>
      <point x="491" y="382" type="line"/>
      <point x="491" y="527" type="line"/>
      <point x="30" y="527" type="line"/>
    </contour>
    <contour>
      <point x="30" y="162" type="line"/>
      <point x="491" y="162" type="line"/>
      <point x="491" y="307" type="line"/>
      <point x="30" y="307" type="line"/>
    </contour>
  </outline>
</glyph>
<glyph name="question" format="1">
  <advance width="525"/>
  <unicode hex="003F"/>
  <outline>
    <contour>
      <point x="505" y="528" type="curve"/>
      <point x="505" y="632"/>
      <point x="426" y="698"/>
      <point x="298" y="698" type="curve"/>
      <point x="174" y="698"/>
      <point x="84" y="647"/>
      <point x="40" y="615" type="curve"/>
      <point x="40" y="434" type="line"/>
      <point x="100" y="483"/>
      <point x="200" y="535"/>
      <point x="271" y="535" type="curve"/>
      <point x="305" y="535"/>
      <point x="328" y="524"/>
      <point x="328" y="499" type="curve"/>
      <point x="328" y="478"/>
      <point x="310" y="461"/>
      <point x="285" y="437" type="curve"/>
      <point x="179" y="336" type="line"/>
      <point x="179" y="244" type="line"/>
      <point x="314" y="244" type="line"/>
      <point x="314" y="293" type="line"/>
      <point x="433" y="392" type="line" smooth="yes"/>
      <point x="476" y="428"/>
      <point x="505" y="471"/>
    </contour>
    <contour>
      <point x="249" y="-15" type="curve" smooth="yes"/>
      <point x="304" y="-15"/>
      <point x="349" y="29"/>
      <point x="349" y="84" type="curve" smooth="yes"/>
      <point x="349" y="139"/>
      <point x="304" y="184"/>
      <point x="249" y="184" type="curve" smooth="yes"/>
      <point x="194" y="184"/>
      <point x="150" y="139"/>
      <point x="150" y="84" type="curve" smooth="yes"/>
      <point x="150" y="29"/>
      <point x="194" y="-15"/>
    </contour>
  </outline>
</glyph>
<glyph name="at" format="1">
  <advance width="758.0"/>
  <unicode hex="0040"/>
  <outline>
    <contour>
      <point x="584" y="260" type="line"/>
      <point x="564.439399066" y="247.645936252"/>
      <point x="515.0" y="238.0"/>
      <point x="485" y="238" type="curve" smooth="yes"/>
      <point x="456.0" y="238.0"/>
      <point x="426.0" y="247.736842105"/>
      <point x="426" y="275" type="curve"/>
      <point x="426.0" y="300.657894737"/>
      <point x="448.941176471" y="314.0"/>
      <point x="491" y="314" type="curve"/>
      <point x="527.03960396" y="314.0"/>
      <point x="573.076673826" y="302.439679131"/>
      <point x="595" y="292" type="curve"/>
      <point x="595" y="388" type="line"/>
      <point x="560.241245211" y="401.903501916"/>
      <point x="518" y="411"/>
      <point x="471" y="411" type="curve" smooth="yes"/>
      <point x="375" y="411"/>
      <point x="277.0" y="368.0"/>
      <point x="277" y="265" type="curve" smooth="yes"/>
      <point x="277.0" y="178.0"/>
      <point x="341.026143791" y="123.0"/>
      <point x="435" y="123" type="curve"/>
      <point x="510.62195122" y="123.0"/>
      <point x="570.333822142" y="159.361640654"/>
      <point x="594" y="185" type="curve"/>
    </contour>
    <contour>
      <point x="627" y="71" type="line"/>
      <point x="572" y="42"/>
      <point x="511" y="27"/>
      <point x="444" y="27" type="curve" smooth="yes"/>
      <point x="301.606299213" y="27.0"/>
      <point x="180.0" y="96.0"/>
      <point x="180" y="269" type="curve"/>
      <point x="180.0" y="436.163179916"/>
      <point x="304" y="496"/>
      <point x="419" y="496" type="curve"/>
      <point x="509" y="496"/>
      <point x="578" y="453.264957265"/>
      <point x="578" y="371" type="curve" smooth="yes"/>
      <point x="578" y="210" type="line"/>
      <point x="588" y="203" type="line"/>
      <point x="588" y="132" type="line"/>
      <point x="728" y="132" type="line"/>
      <point x="728" y="342" type="line"/>
      <point x="728" y="540"/>
      <point x="602" y="642"/>
      <point x="418" y="642" type="curve"/>
      <point x="222" y="642"/>
      <point x="30.0" y="513.145454545"/>
      <point x="30" y="269" type="curve" smooth="yes"/>
      <point x="30.0" y="11.0"/>
      <point x="212.405940594" y="-113.0"/>
      <point x="444" y="-113" type="curve" smooth="yes"/>
      <point x="510" y="-113"/>
      <point x="572" y="-99"/>
      <point x="627" y="-74" type="curve"/>
    </contour>
  </outline>
</glyph>
<glyph name="A" format="1">
  <advance width="771"/>
  <unicode hex="0041"/>
  <outline>
    <contour>
      <point x="183" y="0" type="line"/>
      <point x="385" y="529" type="line"/>
      <point x="585" y="0" type="line"/>
      <point x="774" y="0" type="line"/>
      <point x="500" y="688" type="line"/>
      <point x="271" y="688" type="line"/>
      <point x="-3" y="0" type="line"/>
    </contour>
    <contour>
      <point x="201" y="152" type="line"/>
      <point x="554" y="152" type="line"/>
      <point x="554" y="302" type="line"/>
      <point x="201" y="302" type="line"/>
    </contour>
  </outline>
</glyph>
<glyph name="B" format="1">
  <advance width="710"/>
  <unicode hex="0042"/>
  <outline>
    <contour>
      <point x="60" y="0" type="line"/>
      <point x="432" y="0" type="line"/>
      <point x="591" y="0"/>
      <point x="680" y="68"/>
      <point x="680" y="181" type="curve" smooth="yes"/>
      <point x="680" y="279"/>
      <point x="610" y="350"/>
      <point x="490" y="363" type="curve"/>
      <point x="554" y="363"/>
      <point x="640" y="408"/>
      <point x="640" y="512" type="curve" smooth="yes"/>
      <point x="640" y="635"/>
      <point x="531" y="688"/>
      <point x="402" y="688" type="curve"/>
      <point x="60" y="688" type="line"/>
    </contour>
    <contour>
      <point x="384" y="528" type="line"/>
      <point x="431" y="528"/>
      <point x="453" y="509"/>
      <point x="453" y="476" type="curve"/>
      <point x="453" y="441"/>
      <point x="431" y="425"/>
      <point x="384" y="425" type="curve"/>
      <point x="230" y="425" type="line"/>
      <point x="230" y="528" type="line"/>
    </contour>
    <contour>
      <point x="413" y="285" type="line"/>
      <point x="459" y="285"/>
      <point x="492" y="265"/>
      <point x="492" y="222" type="curve"/>
      <point x="492" y="176"/>
      <point x="459" y="160"/>
      <point x="413" y="160" type="curve"/>
      <point x="230" y="160" type="line"/>
      <point x="230" y="285" type="line"/>
    </contour>
  </outline>
</glyph>
<glyph name="G" format="1">
  <advance width="680"/>
  <unicode hex="0047"/>
  <outline>
    <contour>
      <point x="416" y="148" type="curve"/>
      <point x="513" y="148"/>
      <point x="588" y="182"/>
      <point x="635" y="216" type="curve"/>
      <point x="635" y="42" type="line"/>
      <point x="581" y="12"/>
      <point x="520" y="-12"/>
      <point x="418" y="-12" type="curve" smooth="yes"/>
      <point x="194" y="-12"/>
      <point x="30" y="134"/>
      <point x="30" y="343" type="curve"/>
      <point x="30" y="552"/>
      <point x="194" y="698"/>
      <point x="408" y="698" type="curve"/>
      <point x="510" y="698"/>
      <point x="581" y="674"/>
      <point x="635" y="644" type="curve"/>
      <point x="635" y="470" type="line"/>
      <point x="588" y="504"/>
      <point x="514" y="538"/>
      <point x="417" y="538" type="curve"/>
      <point x="294" y="538"/>
      <point x="210" y="463"/>
      <point x="210" y="343" type="curve"/>
      <point x="210" y="223"/>
      <point x="293" y="148"/>
    </contour>
    <contour>
      <point x="465" y="90" type="line"/>
      <point x="465" y="259" type="line"/>
      <point x="316" y="259" type="line"/>
      <point x="316" y="397" type="line"/>
      <point x="635" y="397" type="line"/>
      <point x="635" y="90" type="line"/>
    </contour>
    <contour>
      <point x="402" y="343" type="move" name="center"/>
    </contour>
  </outline>
</glyph>
<glyph name="H" format="1">
  <advance width="740"/>
  <unicode hex="0048"/>
  <outline>
    <contour>
      <point x="60" y="688" type="line"/>
      <point x="60" y="0" type="line"/>
      <point x="230" y="0" type="line"/>
      <point x="230" y="688" type="line"/>
    </contour>
    <contour>
      <point x="510" y="688" type="line"/>
      <point x="510" y="0" type="line"/>
      <point x="680" y="0" type="line"/>
      <point x="680" y="688" type="line"/>
    </contour>
    <contour>
      <point x="123" y="266" type="line"/>
      <point x="586" y="266" type="line"/>
      <point x="586" y="426" type="line"/>
      <point x="123" y="426" type="line"/>
    </contour>
  </outline>
</glyph>
<glyph name="K" format="1">
  <advance width="699"/>
  <unicode hex="004B"/>
  <outline>
    <contour>
      <point x="60" y="688" type="line"/>
      <point x="60" y="0" type="line"/>
      <point x="230" y="0" type="line"/>
      <point x="230" y="688" type="line"/>
    </contour>
    <contour>
      <point x="694" y="0" type="line"/>
      <point x="469" y="361" type="line"/>
      <point x="680" y="688" type="line"/>
      <point x="488" y="688" type="line"/>
      <point x="288" y="350" type="line"/>
      <point x="491" y="0" type="line"/>
    </contour>
    <contour>
      <point x="157" y="266" type="line"/>
      <point x="389" y="266" type="line"/>
      <point x="389" y="416" type="line"/>
      <point x="157" y="416" type="line"/>
    </contour>
    <contour>
      <point x="357" y="344" type="move" name="center"/>
    </contour>
  </outline>
</glyph>
<glyph name="N" format="1">
  <advance width="727"/>
  <unicode hex="004E"/>
  <outline>
    <contour>
      <point x="220" y="688" type="line"/>
      <point x="50" y="688" type="line"/>
      <point x="50" y="0" type="line"/>
      <point x="220" y="0" type="line"/>
      <point x="220" y="394" type="line"/>
      <point x="506" y="0" type="line"/>
      <point x="667" y="0" type="line"/>
      <point x="667" y="688" type="line"/>
      <point x="497" y="688" type="line"/>
      <point x="497" y="284" type="line"/>
    </contour>
  </outline>
</glyph>
<glyph name="P" format="1">
  <advance width="670"/>
  <unicode hex="0050"/>
  <outline>
    <contour>
      <point x="60" y="688" type="line"/>
      <point x="60" y="0" type="line"/>
      <point x="230" y="0" type="line"/>
      <point x="230" y="688" type="line"/>
    </contour>
    <contour>
      <point x="190" y="353" type="line"/>
      <point x="190" y="193" type="line"/>
      <point x="366" y="193" type="line"/>
      <point x="535" y="193"/>
      <point x="650" y="280"/>
      <point x="650" y="440" type="curve" smooth="yes"/>
      <point x="650" y="604"/>
      <point x="535" y="688"/>
      <point x="366" y="688" type="curve"/>
      <point x="190" y="688" type="line"/>
      <point x="190" y="528" type="line"/>
      <point x="351" y="528" type="line"/>
      <point x="424" y="528"/>
      <point x="470" y="503"/>
      <point x="470" y="440" type="curve" smooth="yes"/>
      <point x="470" y="379"/>
      <point x="424" y="353"/>
      <point x="351" y="353" type="curve"/>
    </contour>
  </outline>
</glyph>
<glyph name="R" format="1">
  <advance width="691"/>
  <unicode hex="0052"/>
  <outline>
    <contour>
      <point x="60" y="688" type="line"/>
      <point x="60" y="0" type="line"/>
      <point x="230" y="0" type="line"/>
      <point x="230" y="688" type="line"/>
    </contour>
    <contour>
      <point x="220" y="242" type="line"/>
      <point x="432" y="242" type="line" smooth="yes"/>
      <point x="562" y="242"/>
      <point x="664" y="321"/>
      <point x="664" y="453" type="curve"/>
      <point x="664" y="614"/>
      <point x="553" y="688"/>
      <point x="386" y="688" type="curve"/>
      <point x="190" y="688" type="line"/>
      <point x="190" y="528" type="line"/>
      <point x="380" y="528" type="line"/>
      <point x="446" y="528"/>
      <point x="486" y="504"/>
      <point x="486" y="451" type="curve"/>
      <point x="486" y="395"/>
      <point x="446" y="371"/>
      <point x="380" y="371" type="curve"/>
      <point x="220" y="371" type="line"/>
    </contour>
    <contour>
      <point x="285" y="246" type="line"/>
      <point x="463" y="0" type="line"/>
      <point x="676" y="0" type="line"/>
      <point x="475" y="246" type="line"/>
    </contour>
    <contour>
      <point x="348" y="344" type="move" name="center"/>
    </contour>
  </outline>
</glyph>
<glyph name="S" format="1">
  <advance width="633.0"/>
  <unicode hex="0053"/>
  <outline>
    <contour>
      <point x="433" y="189" type="curve"/>
      <point x="433.0" y="162.272727273"/>
      <point x="411" y="147"/>
      <point x="341" y="147" type="curve"/>
      <point x="250" y="147"/>
      <point x="126" y="188"/>
      <point x="58" y="238" type="curve"/>
      <point x="58" y="63" type="line"/>
      <point x="104" y="30"/>
      <point x="205" y="-10"/>
      <point x="330" y="-10" type="curve" smooth="yes"/>
      <point x="489" y="-10"/>
      <point x="608" y="64"/>
      <point x="608" y="200" type="curve" smooth="yes"/>
      <point x="608" y="344"/>
      <point x="498" y="382"/>
      <point x="394" y="410" type="curve" smooth="yes"/>
      <point x="320" y="430" type="line" smooth="yes"/>
      <point x="252" y="448"/>
      <point x="211" y="459"/>
      <point x="211" y="494" type="curve"/>
      <point x="211" y="524"/>
      <point x="242" y="537"/>
      <point x="294" y="537" type="curve"/>
      <point x="382" y="537"/>
      <point x="492" y="498"/>
      <point x="559" y="456" type="curve"/>
      <point x="559" y="637" type="line"/>
      <point x="514" y="663"/>
      <point x="431" y="700"/>
      <point x="300" y="700" type="curve" smooth="yes"/>
      <point x="152" y="700"/>
      <point x="29" y="622"/>
      <point x="29" y="481" type="curve"/>
      <point x="29" y="341"/>
      <point x="133" y="299"/>
      <point x="249" y="270" type="curve" smooth="yes"/>
      <point x="334" y="249" type="line" smooth="yes"/>
      <point x="393.225692307" y="234.367770136"/>
      <point x="433.0" y="223.137931034"/>
    </contour>
  </outline>
</glyph>
<glyph name="T" format="1">
  <advance width="602"/>
  <unicode hex="0054"/>
  <outline>
    <contour>
      <point x="216" y="688" type="line"/>
      <point x="216" y="0" type="line"/>
      <point x="386" y="0" type="line"/>
      <point x="386" y="688" type="line"/>
    </contour>
    <contour>
      <point x="10" y="528" type="line"/>
      <point x="592" y="528" type="line"/>
      <point x="592" y="688" type="line"/>
      <point x="10" y="688" type="line"/>
    </contour>
  </outline>
</glyph>
<glyph name="U" format="1">
  <advance width="716"/>
  <unicode hex="0055"/>
  <outline>
    <contour>
      <point x="661" y="688" type="line"/>
      <point x="481" y="688" type="line"/>
      <point x="481" y="282" type="line"/>
      <point x="481" y="198"/>
      <point x="440" y="160"/>
      <point x="358" y="160" type="curve"/>
      <point x="276" y="160"/>
      <point x="235" y="198"/>
      <point x="235" y="282" type="curve"/>
      <point x="235" y="688" type="line"/>
      <point x="55" y="688" type="line"/>
      <point x="55" y="285" type="line"/>
      <point x="55" y="108"/>
      <point x="145" y="-10"/>
      <point x="358" y="-10" type="curve"/>
      <point x="571" y="-10"/>
      <point x="661" y="108"/>
      <point x="661" y="285" type="curve"/>
    </contour>
  </outline>
</glyph>
<glyph name="V" format="1">
  <advance width="761"/>
  <unicode hex="0056"/>
  <outline>
    <contour>
      <point x="274" y="0" type="line"/>
      <point x="485" y="0" type="line"/>
      <point x="756" y="688" type="line"/>
      <point x="558" y="688" type="line"/>
      <point x="381" y="171" type="line"/>
      <point x="206" y="688" type="line"/>
      <point x="5" y="688" type="line"/>
    </contour>
  </outline>
</glyph>
<glyph name="X" format="1">
  <advance width="696"/>
  <unicode hex="0058"/>
  <outline>
    <contour>
      <point x="200" y="0" type="line"/>
      <point x="388" y="320" type="line"/>
      <point x="446" y="314" type="line"/>
      <point x="691" y="688" type="line"/>
      <point x="498" y="688" type="line"/>
      <point x="310" y="368" type="line"/>
      <point x="252" y="374" type="line"/>
      <point x="7" y="0" type="line"/>
    </contour>
    <contour>
      <point x="494" y="0" type="line"/>
      <point x="689" y="0" type="line"/>
      <point x="443" y="374" type="line"/>
      <point x="399" y="370" type="line"/>
      <point x="200" y="688" type="line"/>
      <point x="5" y="688" type="line"/>
      <point x="251" y="314" type="line"/>
      <point x="295" y="318" type="line"/>
    </contour>
  </outline>
</glyph>
<glyph name="Z" format="1">
  <advance width="663"/>
  <unicode hex="005A"/>
  <outline>
    <contour>
      <point x="35" y="140" type="line"/>
      <point x="35" y="0" type="line"/>
      <point x="628" y="0" type="line"/>
      <point x="628" y="160" type="line"/>
      <point x="255" y="160" type="line"/>
      <point x="608" y="548" type="line"/>
      <point x="608" y="688" type="line"/>
      <point x="55" y="688" type="line"/>
      <point x="55" y="528" type="line"/>
      <point x="387" y="528" type="line"/>
    </contour>
  </outline>
</glyph>
<glyph name="bracketleft" format="1">
  <advance width="341"/>
  <unicode hex="005B"/>
  <outline>
    <contour>
      <point x="70" y="-130" type="line"/>
      <point x="321" y="-130" type="line"/>
      <point x="321" y="1" type="line"/>
      <point x="220" y="1" type="line"/>
      <point x="220" y="588" type="line"/>
      <point x="321" y="588" type="line"/>
      <point x="321" y="719" type="line"/>
      <point x="70" y="719" type="line"/>
    </contour>
  </outline>
</glyph>
<glyph name="backslash" format="1">
  <advance width="492"/>
  <unicode hex="005C"/>
  <outline>
    <contour>
      <point x="340" y="0" type="line"/>
      <point x="482" y="0" type="line"/>
      <point x="150" y="688" type="line"/>
      <point x="10" y="688" type="line"/>
    </contour>
  </outline>
</glyph>
<glyph name="bracketright" format="1">
  <advance width="331"/>
  <unicode hex="005D"/>
  <outline>
    <contour>
      <point x="30" y="-130" type="line"/>
      <point x="281" y="-130" type="line"/>
      <point x="281" y="719" type="line"/>
      <point x="30" y="719" type="line"/>
      <point x="30" y="588" type="line"/>
      <point x="131" y="588" type="line"/>
      <point x="131" y="1" type="line"/>
      <point x="30" y="1" type="line"/>
    </contour>
  </outline>
</glyph>
<glyph name="asciicircum" format="1">
  <advance width="577"/>
  <unicode hex="005E"/>
  <outline>
    <contour>
      <point x="186" y="227" type="line"/>
      <point x="292" y="528" type="line"/>
      <point x="285" y="528" type="line"/>
      <point x="391" y="227" type="line"/>
      <point x="547" y="227" type="line"/>
      <point x="360" y="688" type="line"/>
      <point x="218" y="688" type="line"/>
      <point x="30" y="227" type="line"/>
    </contour>
  </outline>
</glyph>
<glyph name="underscore" format="1">
  <advance width="455"/>
  <unicode hex="005F"/>
  <outline>
    <contour>
      <point x="0" y="-20" type="line"/>
      <point x="0" y="-20"/>
      <point x="0" y="-125"/>
      <point x="0" y="-125" type="curve"/>
      <point x="455" y="-125" type="line"/>
      <point x="455" y="-20" type="line"/>
    </contour>
  </outline>
</glyph>
<glyph name="grave" format="1">
  <advance width="346"/>
  <unicode hex="0060"/>
  <outline>
    <contour>
      <point x="218" y="756" type="line"/>
      <point x="30" y="756" type="line"/>
      <point x="170" y="600" type="line"/>
      <point x="170" y="600"/>
      <point x="316" y="600"/>
      <point x="316" y="600" type="curve"/>
    </contour>
    <contour>
      <point x="233" y="678" type="move" name="center"/>
    </contour>
  </outline>
</glyph>
<glyph name="a" format="1">
  <advance width="546"/>
  <unicode hex="0061"/>
  <outline>
    <contour>
      <point x="346" y="135" type="line"/>
      <point x="321" y="120"/>
      <point x="272" y="110"/>
      <point x="233" y="110" type="curve" smooth="yes"/>
      <point x="197" y="110"/>
      <point x="172" y="121"/>
      <point x="172" y="151" type="curve"/>
      <point x="172" y="184"/>
      <point x="212" y="198"/>
      <point x="271" y="198" type="curve"/>
      <point x="301" y="198"/>
      <point x="336" y="192"/>
      <point x="358" y="184" type="curve"/>
      <point x="352" y="278" type="line"/>
      <point x="333" y="289"/>
      <point x="293" y="303"/>
      <point x="236" y="303" type="curve"/>
      <point x="121" y="303"/>
      <point x="25" y="242"/>
      <point x="25" y="142" type="curve" smooth="yes"/>
      <point x="25" y="42"/>
      <point x="96" y="-10"/>
      <point x="201" y="-10" type="curve"/>
      <point x="276" y="-10"/>
      <point x="332" y="25"/>
      <point x="357" y="58" type="curve"/>
    </contour>
    <contour>
      <point x="339" y="293" type="curve"/>
      <point x="339" y="103" type="line"/>
      <point x="349" y="89" type="line"/>
      <point x="349" y="0" type="line"/>
      <point x="499" y="0" type="line"/>
      <point x="499" y="302" type="line"/>
      <point x="499" y="473"/>
      <point x="393" y="540"/>
      <point x="261" y="540" type="curve" smooth="yes"/>
      <point x="159" y="540"/>
      <point x="72.4347376957" y="498.410585602"/>
      <point x="36" y="464" type="curve"/>
      <point x="36" y="301" type="line"/>
      <point x="81.6040655335" y="344.577218176"/>
      <point x="163.795918367" y="380.0"/>
      <point x="238" y="380" type="curve" smooth="yes"/>
      <point x="296.523364486" y="380.0"/>
      <point x="339.0" y="353.0"/>
    </contour>
  </outline>
</glyph>
<glyph name="b" format="1">
  <advance width="605"/>
  <unicode hex="0062"/>
  <outline>
    <contour>
      <point x="210" y="708" type="line"/>
      <point x="210" y="128" type="line"/>
      <point x="185" y="149" type="line"/>
      <point x="207" y="141"/>
      <point x="236" y="133"/>
      <point x="271" y="133" type="curve" smooth="yes"/>
      <point x="344" y="133"/>
      <point x="409" y="155"/>
      <point x="409" y="267" type="curve"/>
      <point x="409" y="363"/>
      <point x="354" y="394"/>
      <point x="299" y="394" type="curve" smooth="yes"/>
      <point x="254" y="394"/>
      <point x="211" y="383"/>
      <point x="185" y="369" type="curve"/>
      <point x="185" y="487" type="line"/>
      <point x="222" y="516"/>
      <point x="281" y="540"/>
      <point x="351" y="540" type="curve" smooth="yes"/>
      <point x="468" y="540"/>
      <point x="575" y="461"/>
      <point x="575" y="277" type="curve"/>
      <point x="575" y="71"/>
      <point x="425" y="-10"/>
      <point x="280" y="-10" type="curve"/>
      <point x="176" y="-10"/>
      <point x="105" y="17"/>
      <point x="50" y="37" type="curve"/>
      <point x="50" y="688" type="line"/>
    </contour>
  </outline>
</glyph>
<glyph name="f" format="1">
  <advance width="397.0"/>
  <unicode hex="0066"/>
  <outline>
    <contour>
      <point x="407" y="683" type="line"/>
      <point x="389" y="694"/>
      <point x="349" y="710"/>
      <point x="295" y="710" type="curve" smooth="yes"/>
      <point x="169" y="710"/>
      <point x="80" y="642"/>
      <point x="80" y="510" type="curve"/>
      <point x="80" y="0" type="line"/>
      <point x="240" y="0" type="line"/>
      <point x="240" y="510" type="line"/>
      <point x="240" y="561"/>
      <point x="277" y="581"/>
      <point x="317" y="581" type="curve" smooth="yes"/>
      <point x="352" y="581"/>
      <point x="390" y="568"/>
      <point x="407" y="555" type="curve"/>
    </contour>
    <contour>
      <point x="10" y="390" type="line"/>
      <point x="365" y="390" type="line"/>
      <point x="365" y="530" type="line"/>
      <point x="10" y="530" type="line"/>
    </contour>
  </outline>
</glyph>
<glyph name="g" format="1">
  <advance width="595"/>
  <unicode hex="0067"/>
  <outline>
    <contour>
      <point x="547" y="115" type="curve" smooth="yes"/>
      <point x="547" y="493" type="line"/>
      <point x="494" y="514"/>
      <point x="423" y="540"/>
      <point x="323" y="540" type="curve"/>
      <point x="179" y="540"/>
      <point x="30" y="460"/>
      <point x="30" y="275" type="curve"/>
      <point x="30" y="141"/>
      <point x="126" y="57"/>
      <point x="251" y="57" type="curve" smooth="yes"/>
      <point x="321" y="57"/>
      <point x="370" y="81"/>
      <point x="407" y="110" type="curve"/>
      <point x="407" y="228" type="line"/>
      <point x="380" y="214"/>
      <point x="338" y="201"/>
      <point x="298" y="201" type="curve" smooth="yes"/>
      <point x="245" y="201"/>
      <point x="196" y="224"/>
      <point x="196" y="297" type="curve"/>
      <point x="196" y="367"/>
      <point x="254" y="397"/>
      <point x="322" y="397" type="curve" smooth="yes"/>
      <point x="357" y="397"/>
      <point x="388" y="389"/>
      <point x="410" y="381" type="curve"/>
      <point x="387" y="398" type="line"/>
      <point x="387" y="90" type="line" smooth="yes"/>
      <point x="387" y="28"/>
      <point x="357" y="-18"/>
      <point x="251" y="-18" type="curve"/>
      <point x="183" y="-18"/>
      <point x="118" y="7"/>
      <point x="69" y="44" type="curve"/>
      <point x="69" y="-117" type="line"/>
      <point x="113" y="-144"/>
      <point x="185" y="-168"/>
      <point x="269" y="-168" type="curve" smooth="yes"/>
      <point x="418" y="-168"/>
      <point x="547" y="-94"/>
    </contour>
    <contour>
      <point x="328.0" y="186.0" type="move" name="center"/>
    </contour>
  </outline>
</glyph>
<glyph name="j" format="1">
  <advance width="264"/>
  <unicode hex="006A"/>
  <outline>
    <contour>
      <point x="-8" y="-168" type="line"/>
      <point x="117" y="-156"/>
      <point x="208" y="-86"/>
      <point x="208" y="57" type="curve"/>
      <point x="208" y="530" type="line"/>
      <point x="48" y="530" type="line"/>
      <point x="48" y="66" type="line"/>
      <point x="48" y="1"/>
      <point x="23" y="-23"/>
      <point x="-47" y="-39" type="curve"/>
    </contour>
    <contour>
      <point x="129" y="579" type="curve"/>
      <point x="196" y="579"/>
      <point x="234" y="609"/>
      <point x="234" y="660" type="curve"/>
      <point x="234" y="711"/>
      <point x="196" y="740"/>
      <point x="129" y="740" type="curve"/>
      <point x="63" y="740"/>
      <point x="23" y="711"/>
      <point x="23" y="660" type="curve"/>
      <point x="23" y="609"/>
      <point x="63" y="579"/>
    </contour>
  </outline>
</glyph>
<glyph name="l" format="1">
  <advance width="260"/>
  <unicode hex="006C"/>
  <outline>
    <contour>
      <point x="50" y="688" type="line"/>
      <point x="50" y="0" type="line"/>
      <point x="210" y="0" type="line"/>
      <point x="210" y="708" type="line"/>
    </contour>
  </outline>
</glyph>
<glyph name="n" format="1">
  <advance width="617"/>
  <unicode hex="006E"/>
  <outline>
    <contour>
      <point x="50" y="530" type="line"/>
      <point x="50" y="0" type="line"/>
      <point x="210" y="0" type="line"/>
      <point x="210" y="397" type="line"/>
      <point x="200" y="415" type="line"/>
      <point x="200" y="530" type="line"/>
    </contour>
    <contour>
      <point x="319" y="385" type="curve"/>
      <point x="387" y="385"/>
      <point x="410" y="348"/>
      <point x="410" y="297" type="curve"/>
      <point x="410" y="0" type="line"/>
      <point x="570" y="0" type="line"/>
      <point x="570" y="340" type="line"/>
      <point x="570" y="456"/>
      <point x="523" y="540"/>
      <point x="392" y="540" type="curve"/>
      <point x="300" y="540"/>
      <point x="225" y="496"/>
      <point x="185" y="452" type="curve"/>
      <point x="185" y="352" type="line"/>
      <point x="213" y="369"/>
      <point x="265" y="385"/>
    </contour>
  </outline>
</glyph>
<glyph name="o" format="1">
  <advance width="631"/>
  <unicode hex="006F"/>
  <outline>
    <contour>
      <point x="315" y="-10" type="curve" smooth="yes"/>
      <point x="152" y="-10"/>
      <point x="30" y="109"/>
      <point x="30" y="265" type="curve" smooth="yes"/>
      <point x="30" y="426"/>
      <point x="152" y="540"/>
      <point x="315" y="540" type="curve" smooth="yes"/>
      <point x="479" y="540"/>
      <point x="601" y="426"/>
      <point x="601" y="265" type="curve" smooth="yes"/>
      <point x="601" y="109"/>
      <point x="479" y="-10"/>
    </contour>
    <contour>
      <point x="315" y="140" type="curve" smooth="yes"/>
      <point x="384" y="140"/>
      <point x="441" y="190"/>
      <point x="441" y="265" type="curve" smooth="yes"/>
      <point x="441" y="342"/>
      <point x="384" y="390"/>
      <point x="315" y="390" type="curve" smooth="yes"/>
      <point x="247" y="390"/>
      <point x="190" y="342"/>
      <point x="190" y="265" type="curve" smooth="yes"/>
      <point x="190" y="191"/>
      <point x="247" y="140"/>
    </contour>
  </outline>
</glyph>
<glyph name="p" format="1">
  <advance width="605"/>
  <unicode hex="0070"/>
  <outline>
    <contour>
      <point x="128" y="11" type="line"/>
      <point x="170" y="-1"/>
      <point x="209" y="-10"/>
      <point x="270" y="-10" type="curve"/>
      <point x="415" y="-10"/>
      <point x="575" y="71"/>
      <point x="575" y="277" type="curve"/>
      <point x="575" y="470"/>
      <point x="446" y="540"/>
      <point x="340" y="540" type="curve"/>
      <point x="260" y="540"/>
      <point x="212" y="515"/>
      <point x="175" y="477" type="curve"/>
      <point x="185" y="369" type="line"/>
      <point x="206" y="382"/>
      <point x="243" y="397"/>
      <point x="286" y="397" type="curve"/>
      <point x="356" y="397"/>
      <point x="409" y="358"/>
      <point x="409" y="265" type="curve"/>
      <point x="409" y="160"/>
      <point x="334" y="133"/>
      <point x="261" y="133" type="curve" smooth="yes"/>
      <point x="226" y="133"/>
      <point x="193" y="141"/>
      <point x="175" y="149" type="curve"/>
    </contour>
    <contour>
      <point x="210" y="414" type="line"/>
      <point x="200" y="432" type="line"/>
      <point x="200" y="530" type="line"/>
      <point x="50" y="530" type="line"/>
      <point x="50" y="-158" type="line"/>
      <point x="210" y="-158" type="line"/>
    </contour>
  </outline>
</glyph>
<glyph name="q" format="1">
  <advance width="605"/>
  <unicode hex="0071"/>
  <outline>
    <contour>
      <point x="395" y="-158" type="line"/>
      <point x="395" y="402" type="line"/>
      <point x="420" y="381" type="line"/>
      <point x="398" y="389"/>
      <point x="369" y="397"/>
      <point x="334" y="397" type="curve" smooth="yes"/>
      <point x="261" y="397"/>
      <point x="196" y="365"/>
      <point x="196" y="263" type="curve"/>
      <point x="196" y="169"/>
      <point x="251" y="136"/>
      <point x="306" y="136" type="curve" smooth="yes"/>
      <point x="351" y="136"/>
      <point x="394" y="147"/>
      <point x="420" y="161" type="curve"/>
      <point x="420" y="43" type="line"/>
      <point x="383" y="14"/>
      <point x="324" y="-10"/>
      <point x="254" y="-10" type="curve" smooth="yes"/>
      <point x="137" y="-10"/>
      <point x="30" y="69"/>
      <point x="30" y="253" type="curve"/>
      <point x="30" y="459"/>
      <point x="180" y="540"/>
      <point x="325" y="540" type="curve"/>
      <point x="429" y="540"/>
      <point x="500" y="513"/>
      <point x="555" y="493" type="curve"/>
      <point x="555" y="-158" type="line"/>
    </contour>
  </outline>
</glyph>
<glyph name="s" format="1">
  <advance width="494"/>
  <unicode hex="0073"/>
  <outline>
    <contour>
      <point x="316" y="318" type="curve" smooth="yes"/>
      <point x="275" y="328" type="line" smooth="yes"/>
      <point x="213" y="343"/>
      <point x="180" y="350"/>
      <point x="180" y="374" type="curve"/>
      <point x="180" y="391"/>
      <point x="202" y="398"/>
      <point x="238" y="398" type="curve" smooth="yes"/>
      <point x="317" y="398"/>
      <point x="410" y="367"/>
      <point x="447" y="337" type="curve"/>
      <point x="447" y="493" type="line"/>
      <point x="414" y="515"/>
      <point x="327" y="540"/>
      <point x="248" y="540" type="curve" smooth="yes"/>
      <point x="107" y="540"/>
      <point x="25" y="470"/>
      <point x="25" y="367" type="curve" smooth="yes"/>
      <point x="25" y="266"/>
      <point x="99" y="225"/>
      <point x="190" y="206" type="curve" smooth="yes"/>
      <point x="228" y="198" type="line" smooth="yes"/>
      <point x="288" y="185"/>
      <point x="319" y="178"/>
      <point x="319" y="157" type="curve"/>
      <point x="319" y="137"/>
      <point x="300" y="129"/>
      <point x="256" y="129" type="curve" smooth="yes"/>
      <point x="179" y="129"/>
      <point x="97" y="157"/>
      <point x="43" y="188" type="curve"/>
      <point x="43" y="37" type="line"/>
      <point x="77" y="16"/>
      <point x="167" y="-10"/>
      <point x="247" y="-10" type="curve" smooth="yes"/>
      <point x="379" y="-10"/>
      <point x="469" y="47"/>
      <point x="469" y="162" type="curve"/>
      <point x="469" y="241"/>
      <point x="420" y="293"/>
    </contour>
    <contour>
      <point x="257" y="265" type="move" name="center"/>
    </contour>
  </outline>
</glyph>
<glyph name="u" format="1">
  <advance width="617"/>
  <unicode hex="0075"/>
  <outline>
    <contour>
      <point x="567" y="0" type="line"/>
      <point x="567" y="530" type="line"/>
      <point x="407" y="530" type="line"/>
      <point x="407" y="133" type="line"/>
      <point x="417" y="115" type="line"/>
      <point x="417" y="0" type="line"/>
    </contour>
    <contour>
      <point x="298" y="145" type="curve"/>
      <point x="230" y="145"/>
      <point x="207" y="182"/>
      <point x="207" y="233" type="curve"/>
      <point x="207" y="530" type="line"/>
      <point x="47" y="530" type="line"/>
      <point x="47" y="190" type="line"/>
      <point x="47" y="74"/>
      <point x="94" y="-10"/>
      <point x="225" y="-10" type="curve"/>
      <point x="317" y="-10"/>
      <point x="392" y="34"/>
      <point x="432" y="78" type="curve"/>
      <point x="432" y="178" type="line"/>
      <point x="404" y="161"/>
      <point x="352" y="145"/>
    </contour>
  </outline>
</glyph>
<glyph name="v" format="1">
  <advance width="607"/>
  <unicode hex="0076"/>
  <outline>
    <contour>
      <point x="208" y="0" type="line"/>
      <point x="398" y="0" type="line"/>
      <point x="602" y="530" type="line"/>
      <point x="430" y="530" type="line"/>
      <point x="306" y="137" type="line"/>
      <point x="179" y="530" type="line"/>
      <point x="5" y="530" type="line"/>
    </contour>
  </outline>
</glyph>
<glyph name="w" format="1">
  <advance width="888"/>
  <unicode hex="0077"/>
  <outline>
    <contour>
      <point x="154" y="0" type="line"/>
      <point x="343" y="0" type="line"/>
      <point x="444" y="356" type="line"/>
      <point x="545" y="0" type="line"/>
      <point x="734" y="0" type="line"/>
      <point x="878" y="530" type="line"/>
      <point x="706" y="530" type="line"/>
      <point x="637" y="147" type="line"/>
      <point x="537" y="530" type="line"/>
      <point x="353" y="530" type="line"/>
      <point x="251" y="147" type="line"/>
      <point x="184" y="530" type="line"/>
      <point x="10" y="530" type="line"/>
    </contour>
  </outline>
</glyph>
<glyph name="x" format="1">
  <advance width="599"/>
  <unicode hex="0078"/>
  <outline>
    <contour>
      <point x="403" y="0" type="line"/>
      <point x="584" y="0" type="line"/>
      <point x="402" y="263" type="line"/>
      <point x="583" y="530" type="line"/>
      <point x="404" y="530" type="line"/>
      <point x="294" y="349" type="line"/>
      <point x="183" y="530" type="line"/>
      <point x="2" y="530" type="line"/>
      <point x="184" y="262" type="line"/>
      <point x="3" y="0" type="line"/>
      <point x="182" y="0" type="line"/>
      <point x="293" y="180" type="line"/>
    </contour>
  </outline>
</glyph>
<glyph name="bar" format="1">
  <advance width="295"/>
  <unicode hex="007C"/>
  <outline>
    <contour>
      <point x="225" y="-158" type="line"/>
      <point x="225" y="688" type="line"/>
      <point x="70" y="688" type="line"/>
      <point x="70" y="-158" type="line"/>
    </contour>
  </outline>
</glyph>
<glyph name="braceright" format="1">
  <advance width="375"/>
  <unicode hex="007D"/>
  <outline>
    <contour>
      <point x="219" y="294" type="curve"/>
      <point x="145" y="274"/>
      <point x="104" y="231"/>
      <point x="104" y="178" type="curve"/>
      <point x="104" y="40" type="line"/>
      <point x="104" y="16"/>
      <point x="88" y="8"/>
      <point x="70" y="7" type="curve" smooth="yes"/>
      <point x="53" y="8"/>
      <point x="33" y="16"/>
      <point x="20" y="23" type="curve"/>
      <point x="20" y="-108" type="line"/>
      <point x="41" y="-117"/>
      <point x="80" y="-129"/>
      <point x="120" y="-130" type="curve"/>
      <point x="195" y="-129"/>
      <point x="254" y="-81"/>
      <point x="254" y="-11" type="curve"/>
      <point x="254" y="166" type="line"/>
      <point x="254" y="197"/>
      <point x="275" y="215"/>
      <point x="325" y="227" type="curve" smooth="yes"/>
      <point x="365" y="237" type="line"/>
      <point x="365" y="352" type="line"/>
      <point x="325" y="362" type="line" smooth="yes"/>
      <point x="275" y="375"/>
      <point x="254" y="393"/>
      <point x="254" y="423" type="curve"/>
      <point x="254" y="600" type="line"/>
      <point x="254" y="671"/>
      <point x="195" y="719"/>
      <point x="120" y="719" type="curve"/>
      <point x="80" y="719"/>
      <point x="41" y="707"/>
      <point x="20" y="697" type="curve"/>
      <point x="20" y="566" type="line"/>
      <point x="33" y="574"/>
      <point x="53" y="582"/>
      <point x="70" y="582" type="curve" smooth="yes"/>
      <point x="88" y="582"/>
      <point x="104" y="574"/>
      <point x="104" y="549" type="curve"/>
      <point x="104" y="411" type="line"/>
      <point x="104" y="359"/>
      <point x="145" y="316"/>
    </contour>
  </outline>
</glyph>
<glyph name="asciitilde" format="1">
  <advance width="521"/>
  <unicode hex="007E"/>
  <outline>
    <contour>
      <point x="30" y="251" type="line"/>
      <point x="56" y="297"/>
      <point x="88" y="318"/>
      <point x="130" y="318" type="curve" smooth="yes"/>
      <point x="220" y="318"/>
      <point x="285" y="226"/>
      <point x="375" y="226" type="curve" smooth="yes"/>
      <point x="421" y="226"/>
      <point x="459" y="244"/>
      <point x="491" y="286" type="curve"/>
      <point x="491" y="431" type="line"/>
      <point x="457" y="386"/>
      <point x="432" y="371"/>
      <point x="393" y="371" type="curve" smooth="yes"/>
      <point x="303" y="371"/>
      <point x="242" y="463"/>
      <point x="149" y="463" type="curve"/>
      <point x="101" y="463"/>
      <point x="61" y="439"/>
      <point x="30" y="396" type="curve"/>
    </contour>
  </outline>
</glyph>
<glyph name="exclamdown" format="1">
  <advance width="310"/>
  <unicode hex="00A1"/>
  <outline>
    <contour>
      <point x="50" y="-158" type="curve"/>
      <point x="260" y="-158" type="line"/>
      <point x="260" y="52"/>
      <point x="230" y="167"/>
      <point x="230" y="296" type="curve"/>
      <point x="80" y="296" type="line"/>
      <point x="80" y="167"/>
      <point x="50" y="52"/>
    </contour>
    <contour>
      <point x="56" y="446" type="curve" smooth="yes"/>
      <point x="56" y="391"/>
      <point x="100" y="346"/>
      <point x="155" y="346" type="curve" smooth="yes"/>
      <point x="210" y="346"/>
      <point x="255" y="391"/>
      <point x="255" y="446" type="curve" smooth="yes"/>
      <point x="255" y="501"/>
      <point x="210" y="545"/>
      <point x="155" y="545" type="curve" smooth="yes"/>
      <point x="100" y="545"/>
      <point x="56" y="501"/>
    </contour>
  </outline>
</glyph>
<glyph name="currency" format="1">
  <advance width="595"/>
  <unicode hex="00A4"/>
  <outline>
    <contour>
      <point x="225" y="169" type="line"/>
      <point x="122" y="272" type="line"/>
      <point x="20" y="169" type="line"/>
      <point x="122" y="67" type="line"/>
    </contour>
    <contour>
      <point x="399" y="344" type="curve" smooth="yes"/>
      <point x="399" y="290"/>
      <point x="352" y="243"/>
      <point x="297" y="243" type="curve" smooth="yes"/>
      <point x="240" y="243"/>
      <point x="194" y="290"/>
      <point x="194" y="344" type="curve" smooth="yes"/>
      <point x="194" y="401"/>
      <point x="240" y="448"/>
      <point x="297" y="448" type="curve" smooth="yes"/>
      <point x="352" y="448"/>
      <point x="399" y="401"/>
    </contour>
    <contour>
      <point x="20" y="520" type="line"/>
      <point x="122" y="417" type="line"/>
      <point x="225" y="520" type="line"/>
      <point x="122" y="622" type="line"/>
    </contour>
    <contour>
      <point x="297" y="586" type="curve" smooth="yes"/>
      <point x="164" y="586"/>
      <point x="55" y="478"/>
      <point x="55" y="344" type="curve" smooth="yes"/>
      <point x="55" y="211"/>
      <point x="164" y="103"/>
      <point x="297" y="103" type="curve" smooth="yes"/>
      <point x="430" y="103"/>
      <point x="539" y="211"/>
      <point x="539" y="344" type="curve" smooth="yes"/>
      <point x="539" y="478"/>
      <point x="430" y="586"/>
    </contour>
    <contour>
      <point x="575" y="169" type="line"/>
      <point x="473" y="272" type="line"/>
      <point x="370" y="169" type="line"/>
      <point x="473" y="67" type="line"/>
    </contour>
    <contour>
      <point x="370" y="520" type="line"/>
      <point x="473" y="417" type="line"/>
      <point x="575" y="520" type="line"/>
      <point x="473" y="622" type="line"/>
    </contour>
  </outline>
</glyph>
<glyph name="section" format="1">
  <advance width="514"/>
  <unicode hex="00A7"/>
  <outline>
    <contour>
      <point x="309" y="309" type="curve" smooth="yes"/>
      <point x="241" y="325" type="line" smooth="yes"/>
      <point x="183" y="339"/>
      <point x="160" y="347"/>
      <point x="160" y="378" type="curve"/>
      <point x="160" y="417" type="line"/>
      <point x="106" y="508" type="line"/>
      <point x="58" y="482"/>
      <point x="30" y="438"/>
      <point x="30" y="378" type="curve"/>
      <point x="30" y="294"/>
      <point x="79" y="237"/>
      <point x="183" y="212" type="curve" smooth="yes"/>
      <point x="224" y="202" type="line" smooth="yes"/>
      <point x="286" y="187"/>
      <point x="319" y="180"/>
      <point x="319" y="156" type="curve"/>
      <point x="319" y="139"/>
      <point x="297" y="132"/>
      <point x="261" y="132" type="curve" smooth="yes"/>
      <point x="182" y="132"/>
      <point x="89" y="163"/>
      <point x="52" y="193" type="curve"/>
      <point x="52" y="37" type="line"/>
      <point x="85" y="15"/>
      <point x="172" y="-10"/>
      <point x="251" y="-10" type="curve" smooth="yes"/>
      <point x="392" y="-10"/>
      <point x="474" y="56"/>
      <point x="474" y="154" type="curve" smooth="yes"/>
      <point x="474" y="252"/>
      <point x="400" y="288"/>
    </contour>
    <contour>
      <point x="331" y="476" type="curve" smooth="yes"/>
      <point x="290" y="486" type="line" smooth="yes"/>
      <point x="228" y="501"/>
      <point x="195" y="508"/>
      <point x="195" y="532" type="curve"/>
      <point x="195" y="549"/>
      <point x="217" y="556"/>
      <point x="253" y="556" type="curve" smooth="yes"/>
      <point x="332" y="556"/>
      <point x="425" y="525"/>
      <point x="462" y="495" type="curve"/>
      <point x="462" y="651" type="line"/>
      <point x="429" y="673"/>
      <point x="342" y="698"/>
      <point x="263" y="698" type="curve" smooth="yes"/>
      <point x="122" y="698"/>
      <point x="40" y="632"/>
      <point x="40" y="534" type="curve" smooth="yes"/>
      <point x="40" y="436"/>
      <point x="114" y="400"/>
      <point x="205" y="379" type="curve" smooth="yes"/>
      <point x="280" y="362" type="line" smooth="yes"/>
      <point x="318" y="353"/>
      <point x="354" y="343"/>
      <point x="354" y="314" type="curve"/>
      <point x="354" y="277" type="line"/>
      <point x="409" y="180" type="line"/>
      <point x="456" y="207"/>
      <point x="484" y="250"/>
      <point x="484" y="310" type="curve"/>
      <point x="484" y="394"/>
      <point x="435" y="451"/>
    </contour>
  </outline>
</glyph>
<glyph name="macron" format="1">
  <advance width="375"/>
  <unicode hex="00AF"/>
  <outline>
    <contour>
      <point x="30" y="736" type="line"/>
      <point x="30" y="736"/>
      <point x="30" y="621"/>
      <point x="30" y="621" type="curve"/>
      <point x="345" y="621" type="line"/>
      <point x="345" y="736" type="line"/>
    </contour>
  </outline>
</glyph>
<glyph name="plusminus" format="1">
  <advance width="521"/>
  <unicode hex="00B1"/>
  <outline>
    <contour>
      <point x="336" y="615" type="line"/>
      <point x="185" y="615" type="line"/>
      <point x="185" y="194" type="line"/>
      <point x="336" y="194" type="line"/>
    </contour>
    <contour>
      <point x="30" y="332" type="line"/>
      <point x="491" y="332" type="line"/>
      <point x="491" y="477" type="line"/>
      <point x="30" y="477" type="line"/>
    </contour>
    <contour>
      <point x="30" y="74" type="line"/>
      <point x="491" y="74" type="line"/>
      <point x="491" y="219" type="line"/>
      <point x="30" y="219" type="line"/>
    </contour>
  </outline>
</glyph>
<glyph name="acute" format="1">
  <advance width="346"/>
  <unicode hex="00B4"/>
  <outline>
    <contour>
      <point x="128" y="756" type="line"/>
      <point x="30" y="600" type="line"/>
      <point x="30" y="600"/>
      <point x="176" y="600"/>
      <point x="176" y="600" type="curve"/>
      <point x="316" y="756" type="line"/>
    </contour>
    <contour>
      <point x="113" y="678" type="move" name="center"/>
    </contour>
  </outline>
</glyph>
<glyph name="paragraph" format="1">
  <advance width="453"/>
  <unicode hex="00B6"/>
  <outline>
    <contour>
      <point x="172" y="-50" type="line"/>
      <point x="297" y="-38"/>
      <point x="388" y="32"/>
      <point x="388" y="175" type="curve"/>
      <point x="388" y="688" type="line"/>
      <point x="278" y="688" type="line"/>
      <point x="151" y="688"/>
      <point x="20" y="616"/>
      <point x="20" y="447" type="curve"/>
      <point x="20" y="316"/>
      <point x="101" y="234"/>
      <point x="206" y="234" type="curve" smooth="yes"/>
      <point x="214" y="234"/>
      <point x="221" y="234"/>
      <point x="228" y="235" type="curve"/>
      <point x="228" y="184" type="line"/>
      <point x="228" y="119"/>
      <point x="203" y="95"/>
      <point x="133" y="79" type="curve"/>
    </contour>
  </outline>
</glyph>
<glyph name="periodcentered" format="1">
  <advance width="400"/>
  <unicode hex="00B7"/>
  <outline>
    <contour>
      <point x="199" y="254" type="curve" smooth="yes"/>
      <point x="249" y="254"/>
      <point x="290" y="294"/>
      <point x="290" y="344" type="curve" smooth="yes"/>
      <point x="290" y="394"/>
      <point x="249" y="435"/>
      <point x="199" y="435" type="curve" smooth="yes"/>
      <point x="149" y="435"/>
      <point x="109" y="394"/>
      <point x="109" y="344" type="curve" smooth="yes"/>
      <point x="109" y="294"/>
      <point x="149" y="254"/>
    </contour>
  </outline>
</glyph>
<glyph name="guillemotright" format="1">
  <advance width="607.0"/>
  <unicode hex="00BB"/>
  <outline>
    <contour>
      <point x="577" y="198" type="line"/>
      <point x="322" y="58" type="line"/>
      <point x="322" y="203" type="line"/>
      <point x="455" y="266" type="line"/>
      <point x="322" y="328" type="line"/>
      <point x="322" y="473" type="line"/>
      <point x="577" y="333" type="line"/>
    </contour>
    <contour>
      <point x="295" y="198" type="line"/>
      <point x="40" y="58" type="line"/>
      <point x="40" y="203" type="line"/>
      <point x="173" y="266" type="line"/>
      <point x="40" y="328" type="line"/>
      <point x="40" y="473" type="line"/>
      <point x="295" y="333" type="line"/>
    </contour>
  </outline>
</glyph>
<glyph name="AE" format="1">
  <advance width="1104"/>
  <unicode hex="00C6"/>
  <outline>
    <contour>
      <point x="523" y="688" type="line"/>
      <point x="523" y="0" type="line"/>
      <point x="693" y="0" type="line"/>
      <point x="693" y="688" type="line"/>
    </contour>
    <contour>
      <point x="556" y="528" type="line"/>
      <point x="1069" y="528" type="line"/>
      <point x="1069" y="688" type="line"/>
      <point x="556" y="688" type="line"/>
    </contour>
    <contour>
      <point x="556" y="0" type="line"/>
      <point x="1069" y="0" type="line"/>
      <point x="1069" y="160" type="line"/>
      <point x="556" y="160" type="line"/>
    </contour>
    <contour>
      <point x="556" y="266" type="line"/>
      <point x="1019" y="266" type="line"/>
      <point x="1019" y="426" type="line"/>
      <point x="556" y="426" type="line"/>
    </contour>
    <contour>
      <point x="527" y="553" type="line"/>
      <point x="537" y="688" type="line"/>
      <point x="420" y="688" type="line"/>
      <point x="0" y="0" type="line"/>
      <point x="209" y="0" type="line"/>
    </contour>
    <contour>
      <point x="236" y="166" type="line"/>
      <point x="532" y="166" type="line"/>
      <point x="532" y="316" type="line"/>
      <point x="236" y="316" type="line"/>
    </contour>
  </outline>
</glyph>
<glyph name="multiply" format="1">
  <advance width="521"/>
  <unicode hex="00D7"/>
  <outline>
    <contour>
      <point x="144" y="568" type="line"/>
      <point x="38" y="461" type="line"/>
      <point x="378" y="121" type="line"/>
      <point x="484" y="228" type="line"/>
    </contour>
    <contour>
      <point x="142" y="119" type="line"/>
      <point x="487" y="463" type="line"/>
      <point x="380" y="570" type="line"/>
      <point x="35" y="225" type="line"/>
    </contour>
  </outline>
</glyph>
<glyph name="Oslash" format="1">
  <advance width="872.0"/>
  <unicode hex="00D8"/>
  <outline>
    <contour>
      <point x="436" y="-10" type="curve" smooth="yes"/>
      <point x="231" y="-10"/>
      <point x="80" y="136"/>
      <point x="80" y="343" type="curve" smooth="yes"/>
      <point x="80" y="552"/>
      <point x="231" y="698"/>
      <point x="436" y="698" type="curve" smooth="yes"/>
      <point x="640" y="698"/>
      <point x="791" y="552"/>
      <point x="791" y="343" type="curve" smooth="yes"/>
      <point x="791" y="136"/>
      <point x="640" y="-10"/>
    </contour>
    <contour>
      <point x="892" y="688" type="line"/>
      <point x="181" y="0" type="line"/>
      <point x="-20" y="0" type="line"/>
      <point x="691" y="688" type="line"/>
    </contour>
    <contour>
      <point x="436" y="150" type="curve" smooth="yes"/>
      <point x="542" y="150"/>
      <point x="621" y="224"/>
      <point x="621" y="343" type="curve" smooth="yes"/>
      <point x="621" y="463"/>
      <point x="542" y="538"/>
      <point x="436" y="538" type="curve" smooth="yes"/>
      <point x="329" y="538"/>
      <point x="250" y="463"/>
      <point x="250" y="343" type="curve"/>
      <point x="250" y="224"/>
      <point x="330" y="150"/>
    </contour>
  </outline>
</glyph>
<glyph name="divide" format="1">
  <advance width="521"/>
  <unicode hex="00F7"/>
  <outline>
    <contour>
      <point x="30" y="273" type="line"/>
      <point x="491" y="273" type="line"/>
      <point x="491" y="418" type="line"/>
      <point x="30" y="418" type="line"/>
    </contour>
    <contour>
      <point x="161" y="84"/>
      <point x="205" y="40"/>
      <point x="260" y="40" type="curve" smooth="yes"/>
      <point x="315" y="40"/>
      <point x="360" y="84"/>
      <point x="360" y="139" type="curve" smooth="yes"/>
      <point x="360" y="194"/>
      <point x="315" y="239"/>
      <point x="260" y="239" type="curve" smooth="yes"/>
      <point x="205" y="239"/>
      <point x="161" y="194"/>
      <point x="161" y="139" type="curve" smooth="yes"/>
    </contour>
    <contour>
      <point x="161" y="494"/>
      <point x="205" y="450"/>
      <point x="260" y="450" type="curve" smooth="yes"/>
      <point x="315" y="450"/>
      <point x="360" y="494"/>
      <point x="360" y="549" type="curve" smooth="yes"/>
      <point x="360" y="604"/>
      <point x="315" y="649"/>
      <point x="260" y="649" type="curve" smooth="yes"/>
      <point x="205" y="649"/>
      <point x="161" y="604"/>
      <point x="161" y="549" type="curve" smooth="yes"/>
    </contour>
  </outline>
</glyph>
<glyph name="oslash" format="1">
  <advance width="631"/>
  <unicode hex="00F8"/>
  <outline>
    <contour>
      <point x="315" y="-10" type="curve" smooth="yes"/>
      <point x="152" y="-10"/>
      <point x="30" y="109"/>
      <point x="30" y="265" type="curve" smooth="yes"/>
      <point x="30" y="426"/>
      <point x="152" y="540"/>
      <point x="315" y="540" type="curve" smooth="yes"/>
      <point x="479" y="540"/>
      <point x="601" y="426"/>
      <point x="601" y="265" type="curve" smooth="yes"/>
      <point x="601" y="109"/>
      <point x="479" y="-10"/>
    </contour>
    <contour>
      <point x="315" y="140" type="curve" smooth="yes"/>
      <point x="384" y="140"/>
      <point x="441" y="190"/>
      <point x="441" y="265" type="curve" smooth="yes"/>
      <point x="441" y="342"/>
      <point x="384" y="390"/>
      <point x="315" y="390" type="curve" smooth="yes"/>
      <point x="247" y="390"/>
      <point x="190" y="342"/>
      <point x="190" y="265" type="curve" smooth="yes"/>
      <point x="190" y="191"/>
      <point x="247" y="140"/>
    </contour>
    <contour>
      <point x="660" y="530" type="line"/>
      <point x="89" y="0" type="line"/>
      <point x="-29" y="0" type="line"/>
      <point x="541" y="530" type="line"/>
    </contour>
  </outline>
</glyph>
<glyph name="thorn" format="1">
  <advance width="605"/>
  <unicode hex="00FE"/>
  <outline>
    <contour>
      <point x="210" y="-158" type="line"/>
      <point x="210" y="708" type="line"/>
      <point x="50" y="688" type="line"/>
      <point x="50" y="-158" type="line"/>
    </contour>
    <contour>
      <point x="128" y="11" type="line"/>
      <point x="170" y="-1"/>
      <point x="209" y="-10"/>
      <point x="270" y="-10" type="curve"/>
      <point x="415.383333333" y="-10.0"/>
      <point x="575.0" y="71.0"/>
      <point x="575" y="277" type="curve"/>
      <point x="575.0" y="470.0"/>
      <point x="446.260869565" y="540.0"/>
      <point x="340" y="540" type="curve"/>
      <point x="260" y="540"/>
      <point x="212" y="515"/>
      <point x="175" y="477" type="curve"/>
      <point x="185" y="369" type="line"/>
      <point x="206" y="382"/>
      <point x="243" y="397"/>
      <point x="286" y="397" type="curve"/>
      <point x="356" y="397"/>
      <point x="409" y="358"/>
      <point x="409" y="265" type="curve"/>
      <point x="409" y="160"/>
      <point x="334" y="133"/>
      <point x="261" y="133" type="curve" smooth="yes"/>
      <point x="226" y="133"/>
      <point x="193" y="141"/>
      <point x="175" y="149" type="curve"/>
    </contour>
  </outline>
</glyph>
<glyph name="dcroat" format="1">
  <advance width="635"/>
  <unicode hex="0111"/>
  <outline>
    <contour>
      <point x="344" y="377" type="curve" smooth="yes"/>
      <point x="379" y="377"/>
      <point x="412" y="369"/>
      <point x="430" y="361" type="curve"/>
      <point x="477" y="499" type="line"/>
      <point x="435" y="511"/>
      <point x="396" y="520"/>
      <point x="335" y="520" type="curve"/>
      <point x="190" y="520"/>
      <point x="30" y="442"/>
      <point x="30" y="243" type="curve"/>
      <point x="30" y="57"/>
      <point x="159" y="-10"/>
      <point x="265" y="-10" type="curve"/>
      <point x="345" y="-10"/>
      <point x="393" y="15"/>
      <point x="430" y="53" type="curve"/>
      <point x="420" y="161" type="line"/>
      <point x="408" y="151"/>
      <point x="360" y="133"/>
      <point x="316" y="133" type="curve"/>
      <point x="246" y="133"/>
      <point x="196" y="169"/>
      <point x="196" y="255" type="curve"/>
      <point x="196" y="352"/>
      <point x="271" y="377"/>
    </contour>
    <contour>
      <point x="395" y="116" type="line"/>
      <point x="405" y="98" type="line"/>
      <point x="405" y="0" type="line"/>
      <point x="555" y="0" type="line"/>
      <point x="555" y="708" type="line"/>
      <point x="395" y="688" type="line"/>
    </contour>
    <contour>
      <point x="213" y="557" type="line"/>
      <point x="625" y="557" type="line"/>
      <point x="625" y="638" type="line"/>
      <point x="213" y="638" type="line"/>
    </contour>
  </outline>
</glyph>
<glyph name="hbar" format="1">
  <advance width="647"/>
  <unicode hex="0127"/>
  <outline>
    <contour>
      <point x="80" y="688" type="line"/>
      <point x="80" y="0" type="line"/>
      <point x="240" y="0" type="line"/>
      <point x="240" y="708" type="line"/>
    </contour>
    <contour>
      <point x="349" y="365" type="curve"/>
      <point x="417" y="365"/>
      <point x="440" y="328"/>
      <point x="440" y="277" type="curve"/>
      <point x="440" y="0" type="line"/>
      <point x="600" y="0" type="line"/>
      <point x="600" y="320" type="line"/>
      <point x="600" y="436"/>
      <point x="553" y="520"/>
      <point x="422" y="520" type="curve"/>
      <point x="330" y="520"/>
      <point x="255" y="476"/>
      <point x="215" y="432" type="curve"/>
      <point x="215" y="332" type="line"/>
      <point x="243" y="349"/>
      <point x="295" y="365"/>
    </contour>
    <contour>
      <point x="10" y="557" type="line"/>
      <point x="422" y="557" type="line"/>
      <point x="422" y="638" type="line"/>
      <point x="10" y="638" type="line"/>
    </contour>
  </outline>
</glyph>
<glyph name="IJ" format="1">
  <advance width="836"/>
  <unicode hex="0132"/>
  <outline>
    <contour>
      <point x="60" y="688" type="line"/>
      <point x="60" y="0" type="line"/>
      <point x="230" y="0" type="line"/>
      <point x="230" y="688" type="line"/>
    </contour>
    <contour>
      <point x="300" y="236" type="line"/>
      <point x="367" y="177"/>
      <point x="447" y="148"/>
      <point x="516" y="148" type="curve"/>
      <point x="572" y="148"/>
      <point x="611" y="171"/>
      <point x="611" y="236" type="curve"/>
      <point x="611" y="688" type="line"/>
      <point x="781" y="688" type="line"/>
      <point x="781" y="230" type="line"/>
      <point x="781" y="89"/>
      <point x="693" y="-12"/>
      <point x="520" y="-12" type="curve"/>
      <point x="409" y="-12"/>
      <point x="343" y="31"/>
      <point x="300" y="61" type="curve"/>
    </contour>
  </outline>
</glyph>
<glyph name="ij" format="1">
  <advance width="500"/>
  <unicode hex="0133"/>
  <outline>
    <contour>
      <point x="55" y="530" type="line"/>
      <point x="55" y="0" type="line"/>
      <point x="215" y="0" type="line"/>
      <point x="215" y="530" type="line"/>
    </contour>
    <contour>
      <point x="136" y="579" type="curve"/>
      <point x="203" y="579"/>
      <point x="241" y="609"/>
      <point x="241" y="660" type="curve"/>
      <point x="241" y="711"/>
      <point x="203" y="740"/>
      <point x="136" y="740" type="curve"/>
      <point x="70" y="740"/>
      <point x="30" y="711"/>
      <point x="30" y="660" type="curve"/>
      <point x="30" y="609"/>
      <point x="70" y="579"/>
    </contour>
    <contour>
      <point x="263" y="-168" type="line"/>
      <point x="388" y="-156"/>
      <point x="479" y="-86"/>
      <point x="479" y="57" type="curve"/>
      <point x="479" y="530" type="line"/>
      <point x="319" y="530" type="line"/>
      <point x="319" y="66" type="line"/>
      <point x="319" y="1"/>
      <point x="294" y="-23"/>
      <point x="224" y="-39" type="curve"/>
    </contour>
    <contour>
      <point x="400" y="579" type="curve"/>
      <point x="467" y="579"/>
      <point x="505" y="609"/>
      <point x="505" y="660" type="curve"/>
      <point x="505" y="711"/>
      <point x="467" y="740"/>
      <point x="400" y="740" type="curve"/>
      <point x="334" y="740"/>
      <point x="294" y="711"/>
      <point x="294" y="660" type="curve"/>
      <point x="294" y="609"/>
      <point x="334" y="579"/>
    </contour>
  </outline>
</glyph>
<glyph name="Jcircumflex" format="1">
  <advance width="556"/>
  <unicode hex="0134"/>
  <outline>
    <contour>
      <point x="10" y="236" type="line"/>
      <point x="77" y="177"/>
      <point x="157" y="148"/>
      <point x="226" y="148" type="curve"/>
      <point x="282" y="148"/>
      <point x="321" y="171"/>
      <point x="321" y="236" type="curve"/>
      <point x="321" y="688" type="line"/>
      <point x="491" y="688" type="line"/>
      <point x="491" y="230" type="line"/>
      <point x="491" y="89"/>
      <point x="403" y="-12"/>
      <point x="230" y="-12" type="curve"/>
      <point x="119" y="-12"/>
      <point x="53" y="31"/>
      <point x="10" y="61" type="curve"/>
    </contour>
    <component base="circumflex.uc" xOffset="192"/>
  </outline>
</glyph>
<glyph name="lslash" format="1">
  <advance width="362"/>
  <unicode hex="0142"/>
  <outline>
    <contour>
      <point x="96" y="688" type="line"/>
      <point x="96" y="0" type="line"/>
      <point x="256" y="0" type="line"/>
      <point x="256" y="708" type="line"/>
    </contour>
    <contour>
      <point x="10" y="295" type="line"/>
      <point x="352" y="410" type="line"/>
      <point x="352" y="540" type="line"/>
      <point x="10" y="425" type="line"/>
    </contour>
  </outline>
</glyph>
<glyph name="eng" format="1">
  <advance width="617"/>
  <unicode hex="014B"/>
  <outline>
    <contour>
      <point x="210" y="0" type="line"/>
      <point x="210" y="397" type="line"/>
      <point x="200" y="415" type="line"/>
      <point x="200" y="530" type="line"/>
      <point x="50" y="530" type="line"/>
      <point x="50" y="0" type="line"/>
    </contour>
    <contour>
      <point x="570" y="57" type="curve"/>
      <point x="570" y="340" type="line"/>
      <point x="570" y="456"/>
      <point x="523" y="540"/>
      <point x="392" y="540" type="curve"/>
      <point x="300" y="540"/>
      <point x="225" y="496"/>
      <point x="185" y="452" type="curve"/>
      <point x="185" y="352" type="line"/>
      <point x="213" y="369"/>
      <point x="265" y="385"/>
      <point x="319" y="385" type="curve"/>
      <point x="387" y="385"/>
      <point x="410" y="348"/>
      <point x="410" y="297" type="curve"/>
      <point x="410" y="66" type="line"/>
      <point x="410" y="1"/>
      <point x="385" y="-23"/>
      <point x="315" y="-39" type="curve"/>
      <point x="354" y="-168" type="line"/>
      <point x="479" y="-156"/>
      <point x="570" y="-86"/>
    </contour>
  </outline>
</glyph>
<glyph name="florin" format="1">
  <advance width="539"/>
  <unicode hex="0192"/>
  <outline>
    <contour>
      <point x="112" y="340" type="line"/>
      <point x="487" y="340" type="line"/>
      <point x="512" y="480" type="line"/>
      <point x="137" y="480" type="line"/>
    </contour>
    <contour>
      <point x="148" y="32" type="line" smooth="yes"/>
      <point x="139" y="-20"/>
      <point x="96" y="-37"/>
      <point x="55" y="-37" type="curve" smooth="yes"/>
      <point x="20" y="-37"/>
      <point x="-13" y="-26"/>
      <point x="-27" y="-13" type="curve"/>
      <point x="-50" y="-141" type="line"/>
      <point x="-34" y="-152"/>
      <point x="5" y="-168"/>
      <point x="63" y="-168" type="curve"/>
      <point x="183" y="-168"/>
      <point x="283" y="-110"/>
      <point x="308" y="32" type="curve" smooth="yes"/>
      <point x="392" y="501" type="line" smooth="yes"/>
      <point x="403" y="562"/>
      <point x="449" y="579"/>
      <point x="496" y="579" type="curve" smooth="yes"/>
      <point x="536" y="579"/>
      <point x="574" y="566"/>
      <point x="589" y="555" type="curve"/>
      <point x="589" y="683" type="line"/>
      <point x="573" y="694"/>
      <point x="527" y="710"/>
      <point x="473" y="710" type="curve" smooth="yes"/>
      <point x="347" y="710"/>
      <point x="255" y="642"/>
      <point x="232" y="510" type="curve" smooth="yes"/>
    </contour>
  </outline>
</glyph>
<glyph name="Oslashacute" format="1">
  <advance width="872"/>
  <unicode hex="01FE"/>
  <outline>
    <contour>
      <point x="436" y="-10" type="curve" smooth="yes"/>
      <point x="231" y="-10"/>
      <point x="80" y="136"/>
      <point x="80" y="343" type="curve" smooth="yes"/>
      <point x="80" y="552"/>
      <point x="231" y="698"/>
      <point x="436" y="698" type="curve" smooth="yes"/>
      <point x="640" y="698"/>
      <point x="791" y="552"/>
      <point x="791" y="343" type="curve" smooth="yes"/>
      <point x="791" y="136"/>
      <point x="640" y="-10"/>
    </contour>
    <contour>
      <point x="892" y="688" type="line"/>
      <point x="181" y="0" type="line"/>
      <point x="-20" y="0" type="line"/>
      <point x="691" y="688" type="line"/>
    </contour>
    <contour>
      <point x="436" y="150" type="curve" smooth="yes"/>
      <point x="542" y="150"/>
      <point x="621" y="224"/>
      <point x="621" y="343" type="curve" smooth="yes"/>
      <point x="621" y="463"/>
      <point x="542" y="538"/>
      <point x="436" y="538" type="curve" smooth="yes"/>
      <point x="329" y="538"/>
      <point x="250" y="463"/>
      <point x="250" y="343" type="curve"/>
      <point x="250" y="224"/>
      <point x="330" y="150"/>
    </contour>
    <component base="acute.uc" xOffset="327"/>
  </outline>
</glyph>
<glyph name="oslashacute" format="1">
  <advance width="631"/>
  <unicode hex="01FF"/>
  <outline>
    <contour>
      <point x="315" y="-10" type="curve" smooth="yes"/>
      <point x="152" y="-10"/>
      <point x="30" y="109"/>
      <point x="30" y="265" type="curve" smooth="yes"/>
      <point x="30" y="426"/>
      <point x="152" y="540"/>
      <point x="315" y="540" type="curve" smooth="yes"/>
      <point x="479" y="540"/>
      <point x="601" y="426"/>
      <point x="601" y="265" type="curve" smooth="yes"/>
      <point x="601" y="109"/>
      <point x="479" y="-10"/>
    </contour>
    <contour>
      <point x="315" y="140" type="curve" smooth="yes"/>
      <point x="384" y="140"/>
      <point x="441" y="190"/>
      <point x="441" y="265" type="curve" smooth="yes"/>
      <point x="441" y="342"/>
      <point x="384" y="390"/>
      <point x="315" y="390" type="curve" smooth="yes"/>
      <point x="247" y="390"/>
      <point x="190" y="342"/>
      <point x="190" y="265" type="curve" smooth="yes"/>
      <point x="190" y="191"/>
      <point x="247" y="140"/>
    </contour>
    <contour>
      <point x="660" y="530" type="line"/>
      <point x="89" y="0" type="line"/>
      <point x="-29" y="0" type="line"/>
      <point x="541" y="530" type="line"/>
    </contour>
    <component base="acute" xOffset="207"/>
  </outline>
</glyph>
<glyph name="circumflex" format="1">
  <advance width="438"/>
  <unicode hex="02C6"/>
  <outline>
    <contour>
      <point x="147" y="756" type="line"/>
      <point x="291" y="756" type="line"/>
      <point x="408" y="600" type="line"/>
      <point x="257" y="600" type="line"/>
      <point x="219" y="667" type="line"/>
      <point x="181" y="600" type="line"/>
      <point x="30" y="600" type="line"/>
    </contour>
  </outline>
</glyph>
<glyph name="caron" format="1">
  <advance width="438"/>
  <unicode hex="02C7"/>
  <outline>
    <contour>
      <point x="147" y="600" type="line"/>
      <point x="30" y="756" type="line"/>
      <point x="181" y="756" type="line"/>
      <point x="219" y="689" type="line"/>
      <point x="257" y="756" type="line"/>
      <point x="408" y="756" type="line"/>
      <point x="291" y="600" type="line"/>
    </contour>
  </outline>
</glyph>
<glyph name="dotaccent" format="1">
  <advance width="241"/>
  <unicode hex="02D9"/>
  <outline>
    <contour>
      <point x="30" y="630"/>
      <point x="70" y="590"/>
      <point x="120" y="590" type="curve" smooth="yes"/>
      <point x="170" y="590"/>
      <point x="211" y="630"/>
      <point x="211" y="680" type="curve" smooth="yes"/>
      <point x="211" y="730"/>
      <point x="170" y="771"/>
      <point x="120" y="771" type="curve" smooth="yes"/>
      <point x="70" y="771"/>
      <point x="30" y="730"/>
      <point x="30" y="680" type="curve" smooth="yes"/>
    </contour>
  </outline>
</glyph>
<glyph name="tilde" format="1">
  <advance width="416"/>
  <unicode hex="02DC"/>
  <outline>
    <contour>
      <point x="283" y="590" type="curve"/>
      <point x="319" y="590"/>
      <point x="354" y="611"/>
      <point x="386" y="658" type="curve"/>
      <point x="386" y="762" type="line"/>
      <point x="363" y="736"/>
      <point x="330" y="699"/>
      <point x="285" y="699" type="curve"/>
      <point x="238" y="699"/>
      <point x="183" y="750"/>
      <point x="134" y="750" type="curve"/>
      <point x="97" y="750"/>
      <point x="62" y="729"/>
      <point x="30" y="682" type="curve"/>
      <point x="30" y="578" type="line"/>
      <point x="53" y="604"/>
      <point x="86" y="641"/>
      <point x="131" y="641" type="curve"/>
      <point x="178" y="641"/>
      <point x="233" y="590"/>
    </contour>
  </outline>
</glyph>
<glyph name="hungarumlaut" format="1">
  <advance width="522"/>
  <unicode hex="02DD"/>
  <outline>
    <contour>
      <point x="128" y="756" type="line"/>
      <point x="30" y="600" type="line"/>
      <point x="30" y="600"/>
      <point x="151" y="600"/>
      <point x="151" y="600" type="curve"/>
      <point x="281" y="756" type="line"/>
    </contour>
    <contour>
      <point x="329" y="756" type="line"/>
      <point x="231" y="600" type="line"/>
      <point x="231" y="600"/>
      <point x="352" y="600"/>
      <point x="352" y="600" type="curve"/>
      <point x="492" y="756" type="line"/>
    </contour>
    <contour>
      <point x="201" y="678" type="move" name="center"/>
    </contour>
  </outline>
</glyph>
<glyph name="pi" format="1">
  <advance width="649"/>
  <unicode hex="03C0"/>
  <outline>
    <contour>
      <point x="20" y="390" type="line"/>
      <point x="616" y="390" type="line"/>
      <point x="616" y="530" type="line"/>
      <point x="20" y="530" type="line"/>
    </contour>
    <contour>
      <point x="100" y="462" type="line"/>
      <point x="100" y="0" type="line"/>
      <point x="260" y="0" type="line"/>
      <point x="260" y="462" type="line"/>
    </contour>
    <contour>
      <point x="534" y="214" type="curve"/>
      <point x="534" y="462" type="line"/>
      <point x="374" y="462" type="line"/>
      <point x="374" y="205" type="line"/>
      <point x="374" y="62"/>
      <point x="465" y="-8"/>
      <point x="590" y="-20" type="curve"/>
      <point x="629" y="109" type="line"/>
      <point x="559" y="125"/>
      <point x="534" y="149"/>
    </contour>
  </outline>
</glyph>
<glyph name="endash" format="1">
  <advance width="500"/>
  <unicode hex="2013"/>
  <outline>
    <contour>
      <point x="40" y="333" type="line"/>
      <point x="40" y="333"/>
      <point x="40" y="198"/>
      <point x="40" y="198" type="curve"/>
      <point x="460" y="198" type="line"/>
      <point x="460" y="333" type="line"/>
    </contour>
  </outline>
</glyph>
<glyph name="emdash" format="1">
  <advance width="840"/>
  <unicode hex="2014"/>
  <outline>
    <contour>
      <point x="40" y="333" type="line"/>
      <point x="40" y="333"/>
      <point x="40" y="198"/>
      <point x="40" y="198" type="curve"/>
      <point x="800" y="198" type="line"/>
      <point x="800" y="333" type="line"/>
    </contour>
  </outline>
</glyph>
<glyph name="quoteleft" format="1">
  <advance width="247"/>
  <unicode hex="2018"/>
  <outline>
    <contour>
      <point x="25" y="454" type="line"/>
      <point x="177" y="454" type="line"/>
      <point x="202" y="688" type="line"/>
      <point x="85" y="688" type="line"/>
    </contour>
  </outline>
</glyph>
<glyph name="quoteright" format="1">
  <advance width="247"/>
  <unicode hex="2019"/>
  <outline>
    <contour>
      <point x="222" y="688" type="line"/>
      <point x="70" y="688" type="line"/>
      <point x="45" y="454" type="line"/>
      <point x="162" y="454" type="line"/>
    </contour>
  </outline>
</glyph>
<glyph name="quotedblright" format="1">
  <advance width="447"/>
  <unicode hex="201D"/>
  <outline>
    <contour>
      <point x="222" y="688" type="line"/>
      <point x="70" y="688" type="line"/>
      <point x="45" y="454" type="line"/>
      <point x="162" y="454" type="line"/>
    </contour>
    <contour>
      <point x="422" y="688" type="line"/>
      <point x="270" y="688" type="line"/>
      <point x="245" y="454" type="line"/>
      <point x="362" y="454" type="line"/>
    </contour>
  </outline>
</glyph>
<glyph name="quotedblbase" format="1">
  <advance width="447"/>
  <unicode hex="201E"/>
  <outline>
    <contour>
      <point x="222" y="118" type="line"/>
      <point x="70" y="118" type="line"/>
      <point x="45" y="-116" type="line"/>
      <point x="162" y="-116" type="line"/>
    </contour>
    <contour>
      <point x="422" y="118" type="line"/>
      <point x="270" y="118" type="line"/>
      <point x="245" y="-116" type="line"/>
      <point x="362" y="-116" type="line"/>
    </contour>
  </outline>
</glyph>
<glyph name="bullet" format="1">
  <advance width="440"/>
  <unicode hex="2022"/>
  <outline>
    <contour>
      <point x="220" y="184" type="curve" smooth="yes"/>
      <point x="309" y="184"/>
      <point x="380" y="255"/>
      <point x="380" y="344" type="curve" smooth="yes"/>
      <point x="380" y="433"/>
      <point x="309" y="504"/>
      <point x="220" y="504" type="curve" smooth="yes"/>
      <point x="131" y="504"/>
      <point x="60" y="433"/>
      <point x="60" y="344" type="curve" smooth="yes"/>
      <point x="60" y="255"/>
      <point x="131" y="184"/>
    </contour>
  </outline>
</glyph>
<glyph name="ellipsis" format="1">
  <advance width="847"/>
  <unicode hex="2026"/>
  <outline>
    <contour>
      <point x="134" y="-15" type="curve" smooth="yes"/>
      <point x="189" y="-15"/>
      <point x="234" y="29"/>
      <point x="234" y="84" type="curve" smooth="yes"/>
      <point x="234" y="139"/>
      <point x="189" y="184"/>
      <point x="134" y="184" type="curve" smooth="yes"/>
      <point x="79" y="184"/>
      <point x="35" y="139"/>
      <point x="35" y="84" type="curve" smooth="yes"/>
      <point x="35" y="29"/>
      <point x="79" y="-15"/>
    </contour>
    <contour>
      <point x="423" y="-15" type="curve" smooth="yes"/>
      <point x="478" y="-15"/>
      <point x="523" y="29"/>
      <point x="523" y="84" type="curve" smooth="yes"/>
      <point x="523" y="139"/>
      <point x="478" y="184"/>
      <point x="423" y="184" type="curve" smooth="yes"/>
      <point x="368" y="184"/>
      <point x="324" y="139"/>
      <point x="324" y="84" type="curve" smooth="yes"/>
      <point x="324" y="29"/>
      <point x="368" y="-15"/>
    </contour>
    <contour>
      <point x="712" y="-15" type="curve" smooth="yes"/>
      <point x="767" y="-15"/>
      <point x="812" y="29"/>
      <point x="812" y="84" type="curve" smooth="yes"/>
      <point x="812" y="139"/>
      <point x="767" y="184"/>
      <point x="712" y="184" type="curve" smooth="yes"/>
      <point x="657" y="184"/>
      <point x="613" y="139"/>
      <point x="613" y="84" type="curve" smooth="yes"/>
      <point x="613" y="29"/>
      <point x="657" y="-15"/>
    </contour>
  </outline>
</glyph>
<glyph name="guilsinglleft" format="1">
  <advance width="325.0"/>
  <unicode hex="2039"/>
  <outline>
    <contour>
      <point x="30" y="198" type="line"/>
      <point x="30" y="333" type="line"/>
      <point x="285" y="473" type="line"/>
      <point x="285" y="328" type="line"/>
      <point x="152" y="266" type="line"/>
      <point x="285" y="203" type="line"/>
      <point x="285" y="58" type="line"/>
    </contour>
  </outline>
</glyph>
<glyph name="guilsinglright" format="1">
  <advance width="325"/>
  <unicode hex="203A"/>
  <outline>
    <contour>
      <point x="295" y="198" type="line"/>
      <point x="40" y="58" type="line"/>
      <point x="40" y="203" type="line"/>
      <point x="173" y="266" type="line"/>
      <point x="40" y="328" type="line"/>
      <point x="40" y="473" type="line"/>
      <point x="295" y="333" type="line"/>
    </contour>
  </outline>
</glyph>
<glyph name="fraction" format="1">
  <advance width="62"/>
  <unicode hex="2044"/>
  <outline>
    <contour>
      <point x="-240" y="0" type="line"/>
      <point x="-118" y="0" type="line"/>
      <point x="302" y="688" type="line"/>
      <point x="182" y="688" type="line"/>
    </contour>
  </outline>
</glyph>
<glyph name="Euro" format="1">
  <advance width="673"/>
  <unicode hex="20AC"/>
  <outline>
    <contour>
      <point x="10" y="364" type="line"/>
      <point x="10" y="479" type="line"/>
      <point x="476" y="479" type="line"/>
      <point x="476" y="364" type="line"/>
    </contour>
    <contour>
      <point x="10" y="209" type="line"/>
      <point x="10" y="324" type="line"/>
      <point x="476" y="324" type="line"/>
      <point x="476" y="209" type="line"/>
    </contour>
    <contour>
      <point x="435" y="-12" type="curve" smooth="yes"/>
      <point x="233" y="-12"/>
      <point x="85" y="124"/>
      <point x="85" y="343" type="curve"/>
      <point x="85" y="562"/>
      <point x="233" y="698"/>
      <point x="435" y="698" type="curve" smooth="yes"/>
      <point x="533" y="698"/>
      <point x="591" y="673"/>
      <point x="643" y="644" type="curve"/>
      <point x="643" y="470" type="line"/>
      <point x="599" y="502"/>
      <point x="533" y="538"/>
      <point x="445" y="538" type="curve"/>
      <point x="338" y="538"/>
      <point x="265" y="473"/>
      <point x="265" y="343" type="curve"/>
      <point x="265" y="213"/>
      <point x="338" y="148"/>
      <point x="445" y="148" type="curve"/>
      <point x="533" y="148"/>
      <point x="599" y="184"/>
      <point x="643" y="216" type="curve"/>
      <point x="643" y="42" type="line"/>
      <point x="591" y="13"/>
      <point x="533" y="-12"/>
    </contour>
  </outline>
</glyph>
<glyph name="partialdiff" format="1">
  <advance width="630"/>
  <unicode hex="2202"/>
  <outline>
    <contour>
      <point x="408" y="399" type="curve"/>
      <point x="402" y="359" type="line"/>
      <point x="417" y="328"/>
      <point x="420" y="302"/>
      <point x="420" y="271" type="curve"/>
      <point x="420" y="196"/>
      <point x="375" y="151"/>
      <point x="309" y="151" type="curve"/>
      <point x="251" y="151"/>
      <point x="209" y="182"/>
      <point x="209" y="233" type="curve" smooth="yes"/>
      <point x="209" y="276"/>
      <point x="245" y="310"/>
      <point x="310" y="310" type="curve"/>
      <point x="371" y="310"/>
      <point x="435" y="281"/>
      <point x="467" y="250" type="curve"/>
      <point x="459" y="351" type="line"/>
      <point x="434" y="388"/>
      <point x="367" y="447"/>
      <point x="258" y="447" type="curve"/>
      <point x="117" y="447"/>
      <point x="30" y="348"/>
      <point x="30" y="233" type="curve" smooth="yes"/>
      <point x="30" y="84"/>
      <point x="141" y="-10"/>
      <point x="316" y="-10" type="curve" smooth="yes"/>
      <point x="499" y="-10"/>
      <point x="600" y="103"/>
      <point x="600" y="267" type="curve"/>
      <point x="600" y="465"/>
      <point x="454" y="619"/>
      <point x="348" y="688" type="curve"/>
      <point x="115" y="688" type="line"/>
      <point x="200" y="630"/>
      <point x="331" y="513"/>
    </contour>
  </outline>
</glyph>
<glyph name="product" format="1">
  <advance width="666"/>
  <unicode hex="220F"/>
  <outline>
    <contour>
      <point x="401" y="533" type="line"/>
      <point x="401" y="-158" type="line"/>
      <point x="566" y="-158" type="line"/>
      <point x="566" y="533" type="line"/>
      <point x="636" y="533" type="line"/>
      <point x="636" y="688" type="line"/>
      <point x="30" y="688" type="line"/>
      <point x="30" y="533" type="line"/>
      <point x="100" y="533" type="line"/>
      <point x="100" y="-158" type="line"/>
      <point x="265" y="-158" type="line"/>
      <point x="265" y="533" type="line"/>
    </contour>
  </outline>
</glyph>
<glyph name="summation" format="1">
  <advance width="511"/>
  <unicode hex="2211"/>
  <outline>
    <contour>
      <point x="408" y="330" type="line"/>
      <point x="228" y="523" type="line"/>
      <point x="501" y="523" type="line"/>
      <point x="501" y="688" type="line"/>
      <point x="10" y="688" type="line"/>
      <point x="10" y="540" type="line"/>
      <point x="258" y="266" type="line"/>
      <point x="10" y="3" type="line"/>
      <point x="10" y="-158" type="line"/>
      <point x="501" y="-158" type="line"/>
      <point x="501" y="8" type="line"/>
      <point x="218" y="8" type="line"/>
      <point x="408" y="200" type="line"/>
    </contour>
  </outline>
</glyph>
<glyph name="infinity" format="1">
  <advance width="717"/>
  <unicode hex="221E"/>
  <outline>
    <contour>
      <point x="352" y="236" type="curve"/>
      <point x="308" y="346" type="line"/>
      <point x="284" y="300"/>
      <point x="248" y="286"/>
      <point x="222" y="286" type="curve" smooth="yes"/>
      <point x="188" y="286"/>
      <point x="164" y="311"/>
      <point x="164" y="343" type="curve" smooth="yes"/>
      <point x="164" y="377"/>
      <point x="188" y="403"/>
      <point x="222" y="403" type="curve" smooth="yes"/>
      <point x="315" y="403"/>
      <point x="297" y="130"/>
      <point x="506" y="130" type="curve" smooth="yes"/>
      <point x="616" y="130"/>
      <point x="687" y="222"/>
      <point x="687" y="346" type="curve" smooth="yes"/>
      <point x="687" y="468"/>
      <point x="616" y="558"/>
      <point x="516" y="558" type="curve" smooth="yes"/>
      <point x="450" y="558"/>
      <point x="401" y="517"/>
      <point x="362" y="455" type="curve"/>
      <point x="408" y="354" type="line"/>
      <point x="428" y="386"/>
      <point x="470" y="403"/>
      <point x="498" y="403" type="curve" smooth="yes"/>
      <point x="535" y="403"/>
      <point x="556" y="377"/>
      <point x="556" y="343" type="curve" smooth="yes"/>
      <point x="556" y="311"/>
      <point x="535" y="286"/>
      <point x="498" y="286" type="curve" smooth="yes"/>
      <point x="401" y="286"/>
      <point x="423" y="558"/>
      <point x="212" y="558" type="curve" smooth="yes"/>
      <point x="101" y="558"/>
      <point x="30" y="467"/>
      <point x="30" y="341" type="curve" smooth="yes"/>
      <point x="30" y="220"/>
      <point x="101" y="130"/>
      <point x="201" y="130" type="curve" smooth="yes"/>
      <point x="267" y="130"/>
      <point x="316" y="172"/>
    </contour>
  </outline>
</glyph>
<glyph name="approxequal" format="1">
  <advance width="521"/>
  <unicode hex="2248"/>
  <outline>
    <contour>
      <point x="30" y="149" type="line"/>
      <point x="55.1921879363" y="180.974700073"/>
      <point x="87.75" y="201.0"/>
      <point x="140" y="201" type="curve" smooth="yes"/>
      <point x="229.822222222" y="201.0"/>
      <point x="274.733333333" y="119.0"/>
      <point x="375" y="119" type="curve" smooth="yes"/>
      <point x="421.0" y="119.0"/>
      <point x="455" y="135"/>
      <point x="491" y="164" type="curve"/>
      <point x="491" y="309" type="line"/>
      <point x="459.410386032" y="278.367647061"/>
      <point x="422.355932203" y="264.0"/>
      <point x="383" y="264" type="curve" smooth="yes"/>
      <point x="289.321428571" y="264.0"/>
      <point x="246.401709402" y="346.0"/>
      <point x="139" y="346" type="curve"/>
      <point x="95.0336134454" y="346.0"/>
      <point x="60.5528453922" y="321.688516137"/>
      <point x="30" y="294" type="curve"/>
    </contour>
    <contour>
      <point x="30" y="372" type="line"/>
      <point x="55.1921879363" y="403.974700073"/>
      <point x="87.75" y="424.0"/>
      <point x="140" y="424" type="curve" smooth="yes"/>
      <point x="233.829787234" y="424.0"/>
      <point x="280.466666667" y="342.0"/>
      <point x="385" y="342" type="curve" smooth="yes"/>
      <point x="427.034482759" y="342.0"/>
      <point x="456.848439063" y="359.489020357"/>
      <point x="491" y="387" type="curve"/>
      <point x="491" y="532" type="line"/>
      <point x="459.410386032" y="501.367647061"/>
      <point x="422.355932203" y="487.0"/>
      <point x="383" y="487" type="curve" smooth="yes"/>
      <point x="289.321428571" y="487.0"/>
      <point x="246.401709402" y="569.0"/>
      <point x="139" y="569" type="curve"/>
      <point x="95.0336134454" y="569.0"/>
      <point x="60.5528453922" y="544.688516137"/>
      <point x="30" y="517" type="curve"/>
    </contour>
  </outline>
</glyph>
<glyph name="lessequal" format="1">
  <advance width="521"/>
  <unicode hex="2264"/>
  <outline>
    <contour>
      <point x="30" y="44" type="line"/>
      <point x="491" y="44" type="line"/>
      <point x="491" y="189" type="line"/>
      <point x="30" y="189" type="line"/>
    </contour>
    <contour>
      <point x="491" y="324" type="line"/>
      <point x="190" y="410" type="line"/>
      <point x="190" y="403" type="line"/>
      <point x="491" y="489" type="line"/>
      <point x="491" y="645" type="line"/>
      <point x="30" y="478" type="line"/>
      <point x="30" y="336" type="line"/>
      <point x="491" y="168" type="line"/>
    </contour>
  </outline>
</glyph>
<glyph name="greaterequal" format="1">
  <advance width="521"/>
  <unicode hex="2265"/>
  <outline>
    <contour>
      <point x="491" y="44" type="line"/>
      <point x="491" y="189" type="line"/>
      <point x="30" y="189" type="line"/>
      <point x="30" y="44" type="line"/>
    </contour>
    <contour>
      <point x="30" y="324" type="line"/>
      <point x="30" y="168" type="line"/>
      <point x="491" y="336" type="line"/>
      <point x="491" y="478" type="line"/>
      <point x="30" y="645" type="line"/>
      <point x="30" y="489" type="line"/>
      <point x="331" y="403" type="line"/>
      <point x="331" y="410" type="line"/>
    </contour>
  </outline>
</glyph>
<glyph name="lozenge" format="1">
  <advance width="544"/>
  <unicode hex="25CA"/>
  <outline>
    <contour>
      <point x="363" y="345" type="line"/>
      <point x="268" y="140" type="line"/>
      <point x="172" y="345" type="line"/>
      <point x="268" y="548" type="line"/>
    </contour>
    <contour>
      <point x="534" y="345" type="line"/>
      <point x="359" y="688" type="line"/>
      <point x="185" y="688" type="line"/>
      <point x="10" y="345" type="line"/>
      <point x="185" y="0" type="line"/>
      <point x="359" y="0" type="line"/>
    </contour>
  </outline>
</glyph>
<glyph name="ITF" format="1">
  <advance width="1511"/>
  <outline>
    <contour>
      <point x="60" y="0" type="line"/>
      <point x="258" y="0" type="line"/>
      <point x="258" y="641" type="line"/>
      <point x="60" y="641" type="line"/>
    </contour>
    <contour>
      <point x="299" y="454" type="line"/>
      <point x="497" y="454" type="line"/>
      <point x="497" y="641" type="line"/>
      <point x="299" y="641" type="line"/>
    </contour>
    <contour>
      <point x="537" y="0" type="line"/>
      <point x="735" y="0" type="line"/>
      <point x="735" y="641" type="line"/>
      <point x="537" y="641" type="line"/>
    </contour>
    <contour>
      <point x="777" y="454" type="line"/>
      <point x="974" y="454" type="line"/>
      <point x="974" y="641" type="line"/>
      <point x="777" y="641" type="line"/>
    </contour>
    <contour>
      <point x="1015" y="0" type="line"/>
      <point x="1212" y="0" type="line"/>
      <point x="1212" y="641" type="line"/>
      <point x="1015" y="641" type="line"/>
    </contour>
    <contour>
      <point x="1254" y="454" type="line"/>
      <point x="1451" y="454" type="line"/>
      <point x="1451" y="641" type="line"/>
      <point x="1254" y="641" type="line"/>
    </contour>
    <contour>
      <point x="1254" y="227" type="line"/>
      <point x="1451" y="227" type="line"/>
      <point x="1451" y="413" type="line"/>
      <point x="1254" y="413" type="line"/>
    </contour>
  </outline>
</glyph>
<glyph name="Omega.math" format="1">
  <advance width="732"/>
  <outline>
    <contour>
      <point x="366" y="533" type="curve"/>
      <point x="454" y="533"/>
      <point x="525" y="476"/>
      <point x="525" y="360" type="curve" smooth="yes"/>
      <point x="525" y="259"/>
      <point x="464" y="180"/>
      <point x="408" y="145" type="curve"/>
      <point x="408" y="0" type="line"/>
      <point x="693" y="0" type="line"/>
      <point x="693" y="145" type="line"/>
      <point x="573" y="141" type="line"/>
      <point x="571" y="121" type="line"/>
      <point x="669" y="193"/>
      <point x="702" y="291"/>
      <point x="702" y="390" type="curve" smooth="yes"/>
      <point x="702" y="566"/>
      <point x="551" y="698"/>
      <point x="366" y="698" type="curve"/>
      <point x="181" y="698"/>
      <point x="30" y="566"/>
      <point x="30" y="390" type="curve" smooth="yes"/>
      <point x="30" y="291"/>
      <point x="63" y="193"/>
      <point x="161" y="121" type="curve"/>
      <point x="159" y="141" type="line"/>
      <point x="39" y="145" type="line"/>
      <point x="39" y="0" type="line"/>
      <point x="324" y="0" type="line"/>
      <point x="324" y="145" type="line"/>
      <point x="268" y="180"/>
      <point x="207" y="259"/>
      <point x="207" y="360" type="curve" smooth="yes"/>
      <point x="207" y="476"/>
      <point x="278" y="533"/>
    </contour>
  </outline>
</glyph>
<glyph name="Omega.math" format="1">
  <advance width="732"/>
  <outline>
    <contour>
      <point x="366" y="533" type="curve"/>
      <point x="454.0" y="533.0"/>
      <point x="525" y="476"/>
      <point x="525" y="360" type="curve" smooth="yes"/>
      <point x="525" y="259"/>
      <point x="463.535158567" y="179.578494957"/>
      <point x="408" y="145" type="curve"/>
      <point x="408" y="0" type="line"/>
      <point x="693" y="0" type="line"/>
      <point x="693" y="145" type="line"/>
      <point x="573" y="141" type="line"/>
      <point x="571" y="121" type="line"/>
      <point x="669.292764009" y="193.151071454"/>
      <point x="702" y="291"/>
      <point x="702" y="390" type="curve" smooth="yes"/>
      <point x="702" y="566"/>
      <point x="551.0" y="698.0"/>
      <point x="366" y="698" type="curve"/>
      <point x="181.0" y="698.0"/>
      <point x="30" y="566"/>
      <point x="30" y="390" type="curve" smooth="yes"/>
      <point x="30" y="291"/>
      <point x="62.7072359905" y="193.151071454"/>
      <point x="161" y="121" type="curve"/>
      <point x="159" y="141" type="line"/>
      <point x="39" y="145" type="line"/>
      <point x="39" y="0" type="line"/>
      <point x="324" y="0" type="line"/>
      <point x="324" y="145" type="line"/>
      <point x="268.464841433" y="179.578494957"/>
      <point x="207" y="259"/>
      <point x="207" y="360" type="curve" smooth="yes"/>
      <point x="207" y="476"/>
      <point x="278.0" y="533.0"/>
    </contour>
  </outline>
</glyph>
<glyph name=".notdef.copy_1" format="1">
  <advance width="580"/>
  <outline>
    <contour>
      <point x="520" y="0" type="line"/>
      <point x="520" y="641" type="line"/>
      <point x="60" y="641" type="line"/>
      <point x="60" y="0" type="line"/>
    </contour>
    <contour>
      <point x="210" y="501" type="line"/>
      <point x="370" y="501" type="line"/>
      <point x="370" y="140" type="line"/>
      <point x="210" y="140" type="line"/>
    </contour>
  </outline>
</glyph>
<glyph name="acute.uc" format="1">
  <advance width="346"/>
  <outline>
    <contour>
      <point x="128" y="874" type="line"/>
      <point x="30" y="747" type="line"/>
      <point x="30" y="747"/>
      <point x="176" y="747"/>
      <point x="176" y="747" type="curve"/>
      <point x="316" y="874" type="line"/>
    </contour>
    <contour>
      <point x="113" y="811" type="move" name="center"/>
    </contour>
  </outline>
</glyph>
<glyph name="commaaccent.uc" format="1">
  <advance width="245"/>
  <outline>
    <contour>
      <point x="215" y="-51" type="line"/>
      <point x="60" y="-51" type="line"/>
      <point x="30" y="-211" type="line"/>
      <point x="155" y="-211" type="line"/>
    </contour>
  </outline>
</glyph>
<glyph name="dieresis.uc" format="1">
  <advance width="423"/>
  <outline>
    <contour>
      <point x="30" y="765"/>
      <point x="66" y="738"/>
      <point x="111" y="738" type="curve" smooth="yes"/>
      <point x="156" y="738"/>
      <point x="193" y="765"/>
      <point x="193" y="809" type="curve" smooth="yes"/>
      <point x="193" y="855"/>
      <point x="156" y="882"/>
      <point x="111" y="882" type="curve" smooth="yes"/>
      <point x="66" y="882"/>
      <point x="30" y="855"/>
      <point x="30" y="809" type="curve" smooth="yes"/>
    </contour>
    <contour>
      <point x="230" y="765"/>
      <point x="266" y="738"/>
      <point x="311" y="738" type="curve" smooth="yes"/>
      <point x="356" y="738"/>
      <point x="393" y="765"/>
      <point x="393" y="809" type="curve" smooth="yes"/>
      <point x="393" y="855"/>
      <point x="356" y="882"/>
      <point x="311" y="882" type="curve" smooth="yes"/>
      <point x="266" y="882"/>
      <point x="230" y="855"/>
      <point x="230" y="809" type="curve" smooth="yes"/>
    </contour>
  </outline>
</glyph>
<glyph name="dotaccent.uc" format="1">
  <advance width="241"/>
  <outline>
    <contour>
      <point x="30" y="770"/>
      <point x="60" y="738"/>
      <point x="120" y="738" type="curve" smooth="yes"/>
      <point x="180" y="738"/>
      <point x="211" y="770"/>
      <point x="211" y="810" type="curve" smooth="yes"/>
      <point x="211" y="850"/>
      <point x="180" y="883"/>
      <point x="120" y="883" type="curve" smooth="yes"/>
      <point x="60" y="883"/>
      <point x="30" y="850"/>
      <point x="30" y="810" type="curve" smooth="yes"/>
    </contour>
  </outline>
</glyph>
<glyph name="dotlessj" format="1">
  <advance width="258"/>
  <outline>
    <contour>
      <point x="-8" y="-168" type="line"/>
      <point x="117" y="-156"/>
      <point x="208" y="-86"/>
      <point x="208" y="57" type="curve"/>
      <point x="208" y="530" type="line"/>
      <point x="48" y="530" type="line"/>
      <point x="48" y="66" type="line"/>
      <point x="48" y="1"/>
      <point x="23" y="-23"/>
      <point x="-47" y="-39" type="curve"/>
    </contour>
  </outline>
</glyph>
<glyph name="f_f" format="1">
  <advance width="734"/>
  <outline>
    <contour>
      <point x="744" y="683" type="line"/>
      <point x="726" y="694"/>
      <point x="686" y="710"/>
      <point x="632" y="710" type="curve" smooth="yes"/>
      <point x="506" y="710"/>
      <point x="417" y="642"/>
      <point x="417" y="510" type="curve"/>
      <point x="417" y="0" type="line"/>
      <point x="577" y="0" type="line"/>
      <point x="577" y="510" type="line"/>
      <point x="577" y="561"/>
      <point x="614" y="581"/>
      <point x="654" y="581" type="curve" smooth="yes"/>
      <point x="689" y="581"/>
      <point x="727" y="568"/>
      <point x="744" y="555" type="curve"/>
    </contour>
    <contour>
      <point x="360" y="698" type="line"/>
      <point x="345" y="704"/>
      <point x="321" y="710"/>
      <point x="288" y="710" type="curve"/>
      <point x="169" y="710"/>
      <point x="80" y="642"/>
      <point x="80" y="510" type="curve"/>
      <point x="80" y="0" type="line"/>
      <point x="240" y="0" type="line"/>
      <point x="240" y="510" type="line"/>
      <point x="240" y="561"/>
      <point x="269" y="581"/>
      <point x="310" y="581" type="curve"/>
      <point x="327" y="581"/>
      <point x="345" y="577"/>
      <point x="360" y="571" type="curve"/>
    </contour>
    <contour>
      <point x="702" y="530" type="line"/>
      <point x="10" y="530" type="line"/>
      <point x="10" y="390" type="line"/>
      <point x="702" y="390" type="line"/>
    </contour>
  </outline>
</glyph>
<glyph name="f_f_b" format="1">
  <advance width="1304"/>
  <outline>
    <contour>
      <point x="360" y="698" type="line"/>
      <point x="345" y="704"/>
      <point x="321" y="710"/>
      <point x="288" y="710" type="curve"/>
      <point x="169" y="710"/>
      <point x="80" y="642"/>
      <point x="80" y="510" type="curve"/>
      <point x="80" y="0" type="line"/>
      <point x="240" y="0" type="line"/>
      <point x="240" y="510" type="line"/>
      <point x="240" y="561"/>
      <point x="269" y="581"/>
      <point x="310" y="581" type="curve"/>
      <point x="327" y="581"/>
      <point x="345" y="577"/>
      <point x="360" y="571" type="curve"/>
    </contour>
    <contour>
      <point x="764" y="683" type="line"/>
      <point x="736" y="695"/>
      <point x="688" y="710"/>
      <point x="630" y="710" type="curve" smooth="yes"/>
      <point x="516" y="710"/>
      <point x="417" y="642"/>
      <point x="417" y="510" type="curve"/>
      <point x="417" y="0" type="line"/>
      <point x="577" y="0" type="line"/>
      <point x="577" y="510" type="line"/>
      <point x="577" y="568"/>
      <point x="611" y="586"/>
      <point x="661" y="586" type="curve" smooth="yes"/>
      <point x="698" y="586"/>
      <point x="738" y="573"/>
      <point x="764" y="559" type="curve"/>
    </contour>
    <contour>
      <point x="914" y="708" type="line"/>
      <point x="754" y="683" type="line"/>
      <point x="754" y="37" type="line"/>
      <point x="809" y="17"/>
      <point x="880" y="-10"/>
      <point x="984" y="-10" type="curve"/>
      <point x="1129" y="-10"/>
      <point x="1279" y="71"/>
      <point x="1279" y="277" type="curve"/>
      <point x="1279" y="461"/>
      <point x="1172" y="540"/>
      <point x="1055" y="540" type="curve" smooth="yes"/>
      <point x="985" y="540"/>
      <point x="926" y="516"/>
      <point x="889" y="487" type="curve"/>
      <point x="889" y="369" type="line"/>
      <point x="915" y="383"/>
      <point x="958" y="394"/>
      <point x="1003" y="394" type="curve" smooth="yes"/>
      <point x="1058" y="394"/>
      <point x="1113" y="363"/>
      <point x="1113" y="267" type="curve"/>
      <point x="1113" y="155"/>
      <point x="1048" y="133"/>
      <point x="975" y="133" type="curve" smooth="yes"/>
      <point x="940" y="133"/>
      <point x="911" y="141"/>
      <point x="889" y="149" type="curve"/>
      <point x="914" y="128" type="line"/>
    </contour>
    <contour>
      <point x="10" y="390" type="line"/>
      <point x="673" y="390" type="line"/>
      <point x="673" y="530" type="line"/>
      <point x="10" y="530" type="line"/>
    </contour>
  </outline>
</glyph>
<glyph name="f_f_i" format="1">
  <advance width="970"/>
  <outline>
    <contour>
      <point x="360" y="698" type="line"/>
      <point x="345" y="704"/>
      <point x="321" y="710"/>
      <point x="288" y="710" type="curve"/>
      <point x="169" y="710"/>
      <point x="80" y="642"/>
      <point x="80" y="510" type="curve"/>
      <point x="80" y="0" type="line"/>
      <point x="240" y="0" type="line"/>
      <point x="240" y="510" type="line"/>
      <point x="240" y="561"/>
      <point x="269" y="581"/>
      <point x="310" y="581" type="curve"/>
      <point x="327" y="581"/>
      <point x="345" y="577"/>
      <point x="360" y="571" type="curve"/>
    </contour>
    <contour>
      <point x="10" y="390" type="line"/>
      <point x="823" y="390" type="line"/>
      <point x="823" y="530" type="line"/>
      <point x="10" y="530" type="line"/>
    </contour>
    <contour>
      <point x="754" y="530" type="line"/>
      <point x="754" y="0" type="line"/>
      <point x="914" y="0" type="line"/>
      <point x="914" y="530" type="line"/>
    </contour>
    <contour>
      <point x="835" y="579" type="curve"/>
      <point x="902" y="579"/>
      <point x="940" y="609"/>
      <point x="940" y="660" type="curve"/>
      <point x="940" y="711"/>
      <point x="902" y="740"/>
      <point x="835" y="740" type="curve"/>
      <point x="769" y="740"/>
      <point x="729" y="711"/>
      <point x="729" y="660" type="curve"/>
      <point x="729" y="609"/>
      <point x="769" y="579"/>
    </contour>
    <contour>
      <point x="671" y="707" type="line"/>
      <point x="653" y="710"/>
      <point x="634" y="712"/>
      <point x="616" y="712" type="curve" smooth="yes"/>
      <point x="513" y="712"/>
      <point x="417" y="660"/>
      <point x="417" y="510" type="curve"/>
      <point x="417" y="0" type="line"/>
      <point x="577" y="0" type="line"/>
      <point x="577" y="523" type="line"/>
      <point x="577" y="568"/>
      <point x="599" y="584"/>
      <point x="636" y="584" type="curve" smooth="yes"/>
      <point x="646" y="584"/>
      <point x="658" y="583"/>
      <point x="671" y="580" type="curve"/>
    </contour>
  </outline>
</glyph>
<glyph name="f_f_k" format="1">
  <advance width="1293"/>
  <outline>
    <contour>
      <point x="754" y="683" type="line"/>
      <point x="754" y="0" type="line"/>
      <point x="914" y="0" type="line"/>
      <point x="914" y="708" type="line"/>
    </contour>
    <contour>
      <point x="912" y="279" type="line"/>
      <point x="1099" y="0" type="line"/>
      <point x="1283" y="0" type="line"/>
      <point x="1079" y="283" type="line"/>
      <point x="1281" y="530" type="line"/>
      <point x="1098" y="530" type="line"/>
    </contour>
    <contour>
      <point x="360" y="698" type="line"/>
      <point x="345" y="704"/>
      <point x="321" y="710"/>
      <point x="288" y="710" type="curve"/>
      <point x="169" y="710"/>
      <point x="80" y="642"/>
      <point x="80" y="510" type="curve"/>
      <point x="80" y="0" type="line"/>
      <point x="240" y="0" type="line"/>
      <point x="240" y="510" type="line"/>
      <point x="240" y="561"/>
      <point x="269" y="581"/>
      <point x="310" y="581" type="curve"/>
      <point x="327" y="581"/>
      <point x="345" y="577"/>
      <point x="360" y="571" type="curve"/>
    </contour>
    <contour>
      <point x="764" y="683" type="line"/>
      <point x="736" y="695"/>
      <point x="688" y="710"/>
      <point x="630" y="710" type="curve" smooth="yes"/>
      <point x="516" y="710"/>
      <point x="417" y="642"/>
      <point x="417" y="510" type="curve"/>
      <point x="417" y="0" type="line"/>
      <point x="577" y="0" type="line"/>
      <point x="577" y="510" type="line"/>
      <point x="577" y="568"/>
      <point x="611" y="586"/>
      <point x="661" y="586" type="curve" smooth="yes"/>
      <point x="698" y="586"/>
      <point x="738" y="573"/>
      <point x="764" y="559" type="curve"/>
    </contour>
    <contour>
      <point x="10" y="390" type="line"/>
      <point x="673" y="390" type="line"/>
      <point x="673" y="530" type="line"/>
      <point x="10" y="530" type="line"/>
    </contour>
  </outline>
</glyph>
<glyph name="f_h" format="1">
  <advance width="984"/>
  <outline>
    <contour>
      <point x="427" y="683" type="curve"/>
      <point x="427" y="559" type="line"/>
      <point x="401" y="573"/>
      <point x="361" y="586"/>
      <point x="324" y="586" type="curve" smooth="yes"/>
      <point x="274" y="586"/>
      <point x="240" y="568"/>
      <point x="240" y="510" type="curve"/>
      <point x="240" y="0" type="line"/>
      <point x="80" y="0" type="line"/>
      <point x="80" y="510" type="line"/>
      <point x="80" y="642"/>
      <point x="179" y="710"/>
      <point x="293" y="710" type="curve" smooth="yes"/>
      <point x="351" y="710"/>
      <point x="399" y="695"/>
    </contour>
    <contour>
      <point x="10" y="390" type="line"/>
      <point x="10" y="530" type="line"/>
      <point x="336" y="530" type="line"/>
      <point x="336" y="390" type="line"/>
    </contour>
    <contour>
      <point x="417" y="683" type="line"/>
      <point x="577" y="708" type="line"/>
      <point x="577" y="0" type="line"/>
      <point x="417" y="0" type="line"/>
    </contour>
    <contour>
      <point x="552" y="452" type="line"/>
      <point x="592" y="496"/>
      <point x="667" y="540"/>
      <point x="759" y="540" type="curve"/>
      <point x="890" y="540"/>
      <point x="937" y="456"/>
      <point x="937" y="340" type="curve"/>
      <point x="937" y="0" type="line"/>
      <point x="777" y="0" type="line"/>
      <point x="777" y="297" type="line"/>
      <point x="777" y="348"/>
      <point x="754" y="385"/>
      <point x="686" y="385" type="curve"/>
      <point x="632" y="385"/>
      <point x="580" y="369"/>
      <point x="552" y="352" type="curve"/>
    </contour>
  </outline>
</glyph>
<glyph name="f_j" format="1">
  <advance width="633"/>
  <outline>
    <contour>
      <point x="10" y="390" type="line"/>
      <point x="486" y="390" type="line"/>
      <point x="486" y="530" type="line"/>
      <point x="10" y="530" type="line"/>
    </contour>
    <contour>
      <point x="498" y="579" type="curve"/>
      <point x="565" y="579"/>
      <point x="603" y="609"/>
      <point x="603" y="660" type="curve"/>
      <point x="603" y="711"/>
      <point x="565" y="740"/>
      <point x="498" y="740" type="curve"/>
      <point x="432" y="740"/>
      <point x="392" y="711"/>
      <point x="392" y="660" type="curve"/>
      <point x="392" y="609"/>
      <point x="432" y="579"/>
    </contour>
    <contour>
      <point x="334" y="707" type="line"/>
      <point x="316" y="710"/>
      <point x="297" y="712"/>
      <point x="279" y="712" type="curve" smooth="yes"/>
      <point x="176" y="712"/>
      <point x="80" y="660"/>
      <point x="80" y="510" type="curve"/>
      <point x="80" y="0" type="line"/>
      <point x="240" y="0" type="line"/>
      <point x="240" y="523" type="line"/>
      <point x="240" y="568"/>
      <point x="262" y="584"/>
      <point x="299" y="584" type="curve" smooth="yes"/>
      <point x="309" y="584"/>
      <point x="321" y="583"/>
      <point x="334" y="580" type="curve"/>
    </contour>
    <contour>
      <point x="361" y="-168" type="line"/>
      <point x="486" y="-156"/>
      <point x="577" y="-86"/>
      <point x="577" y="57" type="curve"/>
      <point x="577" y="530" type="line"/>
      <point x="417" y="530" type="line"/>
      <point x="417" y="66" type="line"/>
      <point x="417" y="1"/>
      <point x="392" y="-23"/>
      <point x="322" y="-39" type="curve"/>
    </contour>
  </outline>
</glyph>
<glyph name="f_l" format="1">
  <advance width="627"/>
  <outline>
    <contour>
      <point x="427" y="683" type="line"/>
      <point x="399" y="695"/>
      <point x="351" y="710"/>
      <point x="293" y="710" type="curve" smooth="yes"/>
      <point x="179" y="710"/>
      <point x="80" y="642"/>
      <point x="80" y="510" type="curve"/>
      <point x="80" y="0" type="line"/>
      <point x="240" y="0" type="line"/>
      <point x="240" y="510" type="line"/>
      <point x="240" y="568"/>
      <point x="274" y="586"/>
      <point x="324" y="586" type="curve" smooth="yes"/>
      <point x="361" y="586"/>
      <point x="401" y="573"/>
      <point x="427" y="559" type="curve"/>
    </contour>
    <contour>
      <point x="10" y="390" type="line"/>
      <point x="336" y="390" type="line"/>
      <point x="336" y="530" type="line"/>
      <point x="10" y="530" type="line"/>
    </contour>
    <contour>
      <point x="417" y="683" type="line"/>
      <point x="417" y="0" type="line"/>
      <point x="577" y="0" type="line"/>
      <point x="577" y="708" type="line"/>
    </contour>
  </outline>
</glyph>
<glyph name="f_t" format="1">
  <advance width="769"/>
  <outline>
    <contour>
      <point x="10" y="390" type="line"/>
      <point x="365" y="390" type="line"/>
      <point x="365" y="530" type="line"/>
      <point x="10" y="530" type="line"/>
    </contour>
    <contour>
      <point x="744" y="21" type="curve"/>
      <point x="744" y="154" type="line"/>
      <point x="722" y="144"/>
      <point x="682" y="134"/>
      <point x="642" y="134" type="curve" smooth="yes"/>
      <point x="603" y="134"/>
      <point x="577" y="146"/>
      <point x="577" y="193" type="curve"/>
      <point x="577" y="390" type="line"/>
      <point x="744" y="390" type="line"/>
      <point x="744" y="530" type="line"/>
      <point x="577" y="530" type="line"/>
      <point x="577" y="629" type="line"/>
      <point x="426" y="609" type="line"/>
      <point x="426" y="530" type="line"/>
      <point x="337" y="530" type="line"/>
      <point x="337" y="390" type="line"/>
      <point x="417" y="390" type="line"/>
      <point x="417" y="170" type="line"/>
      <point x="417" y="29"/>
      <point x="493" y="-11"/>
      <point x="596" y="-11" type="curve" smooth="yes"/>
      <point x="662" y="-11"/>
      <point x="711" y="3"/>
    </contour>
    <contour>
      <point x="360" y="698" type="line"/>
      <point x="345" y="704"/>
      <point x="321" y="710"/>
      <point x="288" y="710" type="curve"/>
      <point x="169" y="710"/>
      <point x="80" y="642"/>
      <point x="80" y="510" type="curve"/>
      <point x="80" y="0" type="line"/>
      <point x="240" y="0" type="line"/>
      <point x="240" y="510" type="line"/>
      <point x="240" y="561"/>
      <point x="269" y="581"/>
      <point x="310" y="581" type="curve"/>
      <point x="327" y="581"/>
      <point x="345" y="577"/>
      <point x="360" y="571" type="curve"/>
    </contour>
  </outline>
</glyph>
<glyph name="grave.uc" format="1">
  <advance width="346"/>
  <outline>
    <contour>
      <point x="218" y="874" type="line"/>
      <point x="30" y="874" type="line"/>
      <point x="170" y="747" type="line"/>
      <point x="170" y="747"/>
      <point x="316" y="747"/>
      <point x="316" y="747" type="curve"/>
    </contour>
    <contour>
      <point x="233" y="811" type="move" name="center"/>
    </contour>
  </outline>
</glyph>
<glyph name="hungarumlaut.uc" format="1">
  <advance width="522"/>
  <outline>
    <contour>
      <point x="128" y="874" type="line"/>
      <point x="30" y="747" type="line"/>
      <point x="30" y="747"/>
      <point x="151" y="747"/>
      <point x="151" y="747" type="curve"/>
      <point x="281" y="874" type="line"/>
    </contour>
    <contour>
      <point x="329" y="874" type="line"/>
      <point x="231" y="747" type="line"/>
      <point x="231" y="747"/>
      <point x="352" y="747"/>
      <point x="352" y="747" type="curve"/>
      <point x="492" y="874" type="line"/>
    </contour>
    <contour>
      <point x="201" y="811" type="move" name="center"/>
    </contour>
  </outline>
</glyph>
<glyph name="mu.math" format="1">
  <advance width="620"/>
  <outline>
    <contour>
      <point x="228" y="-10" type="curve"/>
      <point x="310" y="-10"/>
      <point x="378" y="25"/>
      <point x="420" y="63" type="curve"/>
      <point x="420" y="0" type="line"/>
      <point x="570" y="0" type="line"/>
      <point x="570" y="530" type="line"/>
      <point x="410" y="530" type="line"/>
      <point x="410" y="166" type="line"/>
      <point x="381" y="154"/>
      <point x="342" y="145"/>
      <point x="301" y="145" type="curve"/>
      <point x="233" y="145"/>
      <point x="210" y="182"/>
      <point x="210" y="233" type="curve"/>
      <point x="210" y="530" type="line"/>
      <point x="50" y="530" type="line"/>
      <point x="50" y="-158" type="line"/>
      <point x="220" y="-158" type="line"/>
      <point x="163" y="-1" type="line"/>
      <point x="182" y="-7"/>
      <point x="203" y="-10"/>
    </contour>
  </outline>
</glyph>
<glyph name="ogonek.uc" format="1">
  <advance width="294"/>
  <outline>
    <contour>
      <point x="105" y="0" type="line"/>
      <point x="65" y="-23"/>
      <point x="40" y="-58"/>
      <point x="40" y="-94" type="curve"/>
      <point x="40" y="-152"/>
      <point x="88" y="-178"/>
      <point x="146" y="-178" type="curve" smooth="yes"/>
      <point x="173" y="-178"/>
      <point x="200" y="-169"/>
      <point x="218" y="-158" type="curve"/>
      <point x="218" y="-69" type="line"/>
      <point x="202" y="-81"/>
      <point x="184" y="-87"/>
      <point x="169" y="-87" type="curve" smooth="yes"/>
      <point x="153" y="-87"/>
      <point x="136" y="-83"/>
      <point x="136" y="-63" type="curve" smooth="yes"/>
      <point x="136" y="-44"/>
      <point x="158" y="-21"/>
      <point x="187" y="0" type="curve"/>
    </contour>
  </outline>
</glyph>
<glyph name="ring.uc" format="1">
  <advance width="314"/>
  <outline>
    <contour>
      <point x="157" y="738" type="curve" smooth="yes"/>
      <point x="233" y="738"/>
      <point x="274" y="768"/>
      <point x="274" y="812" type="curve" smooth="yes"/>
      <point x="274" y="856"/>
      <point x="233" y="886"/>
      <point x="157" y="886" type="curve" smooth="yes"/>
      <point x="81" y="886"/>
      <point x="40" y="856"/>
      <point x="40" y="812" type="curve" smooth="yes"/>
      <point x="40" y="768"/>
      <point x="81" y="738"/>
    </contour>
    <contour>
      <point x="158" y="795" type="curve" smooth="yes"/>
      <point x="133" y="795"/>
      <point x="126" y="802"/>
      <point x="126" y="812" type="curve" smooth="yes"/>
      <point x="126" y="822"/>
      <point x="133" y="829"/>
      <point x="158" y="829" type="curve" smooth="yes"/>
      <point x="183" y="829"/>
      <point x="190" y="822"/>
      <point x="190" y="812" type="curve" smooth="yes"/>
      <point x="190" y="802"/>
      <point x="183" y="795"/>
    </contour>
  </outline>
</glyph>
<glyph name="tcommaaccent.alt" format="1">
  <advance width="442"/>
  <outline>
    <contour>
      <point x="417" y="21" type="curve"/>
      <point x="417" y="154" type="line"/>
      <point x="395" y="144"/>
      <point x="355" y="134"/>
      <point x="315" y="134" type="curve" smooth="yes"/>
      <point x="276" y="134"/>
      <point x="250" y="146"/>
      <point x="250" y="193" type="curve"/>
      <point x="250" y="390" type="line"/>
      <point x="417" y="390" type="line"/>
      <point x="417" y="530" type="line"/>
      <point x="250" y="530" type="line"/>
      <point x="250" y="629" type="line"/>
      <point x="99" y="609" type="line"/>
      <point x="99" y="530" type="line"/>
      <point x="10" y="530" type="line"/>
      <point x="10" y="390" type="line"/>
      <point x="90" y="390" type="line"/>
      <point x="90" y="170" type="line"/>
      <point x="90" y="29"/>
      <point x="166" y="-11"/>
      <point x="269" y="-11" type="curve" smooth="yes"/>
      <point x="335" y="-11"/>
      <point x="384" y="3"/>
    </contour>
    <component base="commaaccent" xOffset="131"/>
  </outline>
</glyph>
<glyph name="tilde.uc" format="1">
  <advance width="416"/>
  <outline>
    <contour>
      <point x="283" y="738" type="curve"/>
      <point x="319" y="738"/>
      <point x="354" y="759"/>
      <point x="386" y="806" type="curve"/>
      <point x="386" y="896" type="line"/>
      <point x="363" y="870"/>
      <point x="330" y="833"/>
      <point x="285" y="833" type="curve"/>
      <point x="238" y="833"/>
      <point x="183" y="884"/>
      <point x="134" y="884" type="curve"/>
      <point x="97" y="884"/>
      <point x="62" y="863"/>
      <point x="30" y="816" type="curve"/>
      <point x="30" y="726" type="line"/>
      <point x="53" y="752"/>
      <point x="86" y="789"/>
      <point x="131" y="789" type="curve"/>
      <point x="178" y="789"/>
      <point x="233" y="738"/>
    </contour>
  </outline>
</glyph>
